<svg width="150" height="150" viewBox="0 0 150 150" fill="none" xmlns="http://www.w3.org/2000/svg">
<path d="M140.625 112.5V103.125H130.777C130.168 100.192 129.004 97.4024 127.345 94.9078L134.33 87.9234L127.702 81.2953L120.717 88.2797C118.223 86.6213 115.433 85.4566 112.5 84.8484V75H103.125V84.8484C100.192 85.4566 97.4024 86.6213 94.9078 88.2797L87.9234 81.2953L81.2953 87.9234L88.2797 94.9078C86.6213 97.4024 85.4566 100.192 84.8484 103.125H75V112.5H84.8484C85.4566 115.433 86.6213 118.223 88.2797 120.717L81.2953 127.702L87.9234 134.33L94.9078 127.345C97.4024 129.004 100.192 130.168 103.125 130.777V140.625H112.5V130.777C115.433 130.168 118.223 129.004 120.717 127.345L127.702 134.33L134.33 127.702L127.345 120.717C129.004 118.223 130.168 115.433 130.777 112.5H140.625ZM107.812 121.875C105.031 121.875 102.312 121.05 99.9998 119.505C97.6872 117.96 95.8848 115.764 94.8204 113.194C93.7561 110.624 93.4776 107.797 94.0202 105.069C94.5628 102.341 95.9021 99.8355 97.8688 97.8688C99.8355 95.9021 102.341 94.5628 105.069 94.0202C107.797 93.4776 110.624 93.7561 113.194 94.8204C115.764 95.8848 117.96 97.6872 119.505 99.9998C121.05 102.312 121.875 105.031 121.875 107.812C121.871 111.541 120.389 115.116 117.752 117.752C115.116 120.389 111.541 121.871 107.812 121.875Z" fill="black"/>
<path d="M131.25 18.75H18.75C16.2636 18.75 13.879 19.7377 12.1209 21.4959C10.3627 23.254 9.375 25.6386 9.375 28.125V121.875C9.375 124.361 10.3627 126.746 12.1209 128.504C13.879 130.262 16.2636 131.25 18.75 131.25H65.625V121.875H18.75V56.25H131.25V70.3125H140.625V28.125C140.625 25.6386 139.637 23.254 137.879 21.4959C136.121 19.7377 133.736 18.75 131.25 18.75ZM131.25 46.875H18.75V28.125H131.25V46.875Z" fill="black"/>
<path d="M93.75 42.1875C96.3388 42.1875 98.4375 40.0888 98.4375 37.5C98.4375 34.9112 96.3388 32.8125 93.75 32.8125C91.1612 32.8125 89.0625 34.9112 89.0625 37.5C89.0625 40.0888 91.1612 42.1875 93.75 42.1875Z" fill="black"/>
<path d="M107.812 42.1875C110.401 42.1875 112.5 40.0888 112.5 37.5C112.5 34.9112 110.401 32.8125 107.812 32.8125C105.224 32.8125 103.125 34.9112 103.125 37.5C103.125 40.0888 105.224 42.1875 107.812 42.1875Z" fill="black"/>
<path d="M121.875 42.1875C124.464 42.1875 126.562 40.0888 126.562 37.5C126.562 34.9112 124.464 32.8125 121.875 32.8125C119.286 32.8125 117.188 34.9112 117.188 37.5C117.188 40.0888 119.286 42.1875 121.875 42.1875Z" fill="black"/>
</svg>
