<svg width="151" height="150" viewBox="0 0 151 150" fill="none" xmlns="http://www.w3.org/2000/svg">
<path d="M141.125 28.125C141.11 23.2629 139.204 18.5973 135.809 15.1164C132.414 11.6355 127.798 9.61261 122.938 9.47613C118.078 9.33965 113.355 11.1003 109.77 14.3852C106.186 17.6701 104.02 22.2213 103.733 27.075L45.4344 38.7328C44.0714 35.8998 42.0162 33.4561 39.4587 31.6275C36.9013 29.799 33.9242 28.6446 30.8026 28.2711C27.681 27.8976 24.5156 28.317 21.599 29.4905C18.6823 30.6641 16.1086 32.5539 14.1156 34.9854C12.1227 37.4169 10.7748 40.3115 10.1965 43.4017C9.61827 46.492 9.82834 49.6781 10.8073 52.6657C11.7863 55.6533 13.5026 58.3459 15.7975 60.4946C18.0925 62.6434 20.8921 64.1789 23.9375 64.9594V103.791C20.7388 104.61 17.8139 106.262 15.4599 108.578C13.1059 110.893 11.4066 113.791 10.5345 116.975C9.66242 120.16 9.64863 123.519 10.4945 126.711C11.3405 129.903 13.0159 132.814 15.3509 135.149C17.6858 137.484 20.597 139.16 23.7889 140.006C26.9808 140.851 30.3397 140.838 33.5246 139.966C36.7094 139.093 39.6068 137.394 41.9225 135.04C44.2382 132.686 45.8897 129.761 46.7094 126.563H85.5407C86.3199 129.61 87.855 132.412 90.0039 134.709C92.1528 137.006 94.8463 138.724 97.8352 139.704C100.824 140.684 104.012 140.895 107.104 140.317C110.196 139.739 113.092 138.391 115.525 136.397C117.957 134.403 119.848 131.827 121.022 128.909C122.196 125.991 122.615 122.824 122.24 119.7C121.866 116.577 120.71 113.599 118.879 111.041C117.048 108.483 114.602 106.428 111.767 105.066L123.425 46.7672C128.197 46.5052 132.688 44.4287 135.979 40.9628C139.27 37.497 141.111 32.9042 141.125 28.125ZM122.375 18.75C124.229 18.75 126.042 19.2998 127.584 20.33C129.125 21.3601 130.327 22.8243 131.036 24.5374C131.746 26.2504 131.932 28.1354 131.57 29.954C131.208 31.7726 130.315 33.443 129.004 34.7541C127.693 36.0653 126.023 36.9581 124.204 37.3199C122.385 37.6816 120.5 37.496 118.787 36.7864C117.074 36.0768 115.61 34.8752 114.58 33.3335C113.55 31.7918 113 29.9792 113 28.125C113 25.6386 113.988 23.254 115.746 21.4959C117.504 19.7377 119.889 18.75 122.375 18.75ZM19.25 46.875C19.25 45.0208 19.7999 43.2083 20.83 41.6665C21.8602 40.1248 23.3243 38.9232 25.0374 38.2136C26.7504 37.5041 28.6354 37.3184 30.454 37.6801C32.2726 38.0419 33.9431 38.9348 35.2542 40.2459C36.5653 41.557 37.4582 43.2275 37.8199 45.046C38.1816 46.8646 37.996 48.7496 37.2864 50.4627C36.5768 52.1757 35.3752 53.6399 33.8335 54.67C32.2918 55.7002 30.4792 56.25 28.625 56.25C26.1386 56.25 23.7541 55.2623 21.9959 53.5041C20.2378 51.746 19.25 49.3614 19.25 46.875ZM28.625 131.25C26.7708 131.25 24.9583 130.7 23.4166 129.67C21.8749 128.64 20.6732 127.176 19.9637 125.463C19.2541 123.75 19.0684 121.865 19.4302 120.046C19.7919 118.227 20.6848 116.557 21.9959 115.246C23.307 113.935 24.9775 113.042 26.7961 112.68C28.6146 112.318 30.4996 112.504 32.2127 113.214C33.9258 113.923 35.3899 115.125 36.4201 116.667C37.4502 118.208 38 120.021 38 121.875C38 124.361 37.0123 126.746 35.2542 128.504C33.496 130.262 31.1114 131.25 28.625 131.25ZM85.5407 117.188H46.7094C45.8671 113.966 44.182 111.027 41.8275 108.673C39.473 106.318 36.534 104.633 33.3125 103.791V64.9594C37.1414 63.9612 40.555 61.7744 43.0625 58.7136C45.57 55.6527 47.0422 51.8754 47.2672 47.925L105.566 36.2672C107.401 40.0474 110.454 43.1014 114.233 44.9391L102.575 103.233C98.6246 103.458 94.8474 104.93 91.7865 107.438C88.7256 109.945 86.5388 113.359 85.5407 117.188ZM103.625 131.25C101.771 131.25 99.9583 130.7 98.4166 129.67C96.8749 128.64 95.6732 127.176 94.9637 125.463C94.2541 123.75 94.0684 121.865 94.4302 120.046C94.7919 118.227 95.6848 116.557 96.9959 115.246C98.307 113.935 99.9775 113.042 101.796 112.68C103.615 112.318 105.5 112.504 107.213 113.214C108.926 113.923 110.39 115.125 111.42 116.667C112.45 118.208 113 120.021 113 121.875C113 124.361 112.012 126.746 110.254 128.504C108.496 130.262 106.111 131.25 103.625 131.25Z" fill="black"/>
</svg>
