<svg width="570" height="255" viewBox="0 0 570 255" fill="none" xmlns="http://www.w3.org/2000/svg">
<path d="M243 248.272C243.444 248.004 243.999 248.074 244.511 248.069C250.777 248.011 257.056 248.095 263.324 248.095L306.864 248.082L321.636 248.077C322.837 248.077 325.794 247.877 326.731 248.121C326.87 248.158 326.898 248.188 327 248.259C326.979 248.266 326.958 248.275 326.937 248.281C326.234 248.512 325.529 248.737 324.822 248.957C324.115 249.176 323.406 249.389 322.694 249.597C321.983 249.804 321.27 250.006 320.555 250.202C319.839 250.398 319.122 250.588 318.404 250.772C317.685 250.956 316.964 251.134 316.242 251.307C315.52 251.479 314.796 251.645 314.07 251.806C313.345 251.966 312.618 252.121 311.889 252.269C311.161 252.418 310.431 252.56 309.7 252.696C308.968 252.833 308.236 252.964 307.502 253.088C306.769 253.212 306.034 253.331 305.298 253.443C304.562 253.556 303.825 253.662 303.087 253.762C302.348 253.862 301.609 253.957 300.87 254.045C300.13 254.133 299.389 254.215 298.647 254.291C297.906 254.367 297.164 254.437 296.421 254.501C295.678 254.564 294.935 254.622 294.191 254.674C293.447 254.725 292.702 254.771 291.958 254.81C291.213 254.85 290.467 254.883 289.722 254.91C288.977 254.937 288.231 254.958 287.485 254.973C286.739 254.988 285.993 254.997 285.247 254.999C284.501 255.002 283.755 254.998 283.009 254.989C282.263 254.979 281.517 254.963 280.772 254.941C280.026 254.92 279.28 254.892 278.535 254.858C277.79 254.823 277.045 254.783 276.301 254.737C275.557 254.69 274.813 254.638 274.07 254.579C273.326 254.521 272.583 254.456 271.841 254.386C271.099 254.315 270.358 254.238 269.617 254.155C268.877 254.072 268.137 253.983 267.398 253.888C266.659 253.793 265.921 253.692 265.184 253.585C264.447 253.477 263.711 253.364 262.977 253.245C262.242 253.126 261.508 253 260.776 252.869C260.044 252.738 259.313 252.6 258.583 252.457C257.853 252.314 257.125 252.164 256.398 252.009C251.923 251.043 247.214 249.999 243 248.272Z" fill="#F5EAFF"/>
<path d="M173 243.029C175.029 243.402 177.147 243.183 179.201 243.159L187.461 243.139L222.806 243.142L338.077 243.144L375.335 243.141C378.763 243.147 382.19 243.13 385.618 243.091C387.631 243.067 389.708 242.927 391.716 243.05C392.525 243.296 393.252 243.558 394 243.957C389.458 245.469 384.213 245.532 379.455 245.905C366.21 246.825 352.949 247.387 339.673 247.591C337.017 247.661 334.359 247.709 331.702 247.734C330.003 247.757 328.013 247.588 326.357 247.986C326.256 247.909 326.228 247.876 326.089 247.837C325.16 247.573 322.228 247.789 321.037 247.789L306.388 247.794L263.207 247.808C256.991 247.809 250.765 247.718 244.551 247.781C244.043 247.786 243.492 247.71 243.052 248C241.702 247.72 240.023 247.866 238.623 247.834L226.513 247.65C219.015 247.496 211.519 247.283 204.024 247.01C195.329 246.698 186.518 246.299 177.918 244.913C176.359 244.661 173.988 244.405 173 243.029Z" fill="#FCFCFC"/>
<path d="M381.644 65C384.5 67.9572 388.061 73.9018 390.106 77.5892C400.661 96.6257 405.323 116.848 404.983 138.588C404.685 157.608 399.107 176.314 389.877 192.848C386.849 198.272 383.597 203.338 379.492 208C379.143 206.525 379.425 202.32 379.427 200.563C379.433 195.112 379.291 189.685 379.453 184.233L379.447 180.707L379.435 177.849C379.413 176.896 379.434 175.944 379.455 174.991C379.132 170.19 379.323 165.299 379.324 160.485L379.332 135.29L379.347 127.684C379.356 126.005 379.439 124.288 379.289 122.616C379.161 121.184 378.685 119.931 377.776 118.816C375.611 116.16 372.516 114.177 369.951 111.928C363.687 106.363 357.37 100.86 351 95.4196C352.112 93.2388 363.328 83.3644 366.136 80.5861C371.356 75.4211 376.219 69.9657 381.644 65Z" fill="#F5EAFF"/>
<path d="M379 181C379.685 181.077 380.334 181.182 381 181.32C380.41 182.217 379.862 183.217 379.008 184L379 181Z" fill="#CFA8CC"/>
<path d="M387.361 143C388.244 143.051 389.12 143.153 390 143.258C389.95 144.843 389.8 146.423 389.665 148C388.795 147.799 387.88 147.731 387 147.606C387.2 146.081 387.321 144.545 387.361 143Z" fill="#CFA8CC"/>
<path d="M387.119 135C388.412 135.014 389.708 135.084 391 135.132C390.958 137.086 390.967 139.045 390.953 141C389.638 141 388.314 140.889 387 140.817C387.01 138.878 387.05 136.938 387.119 135Z" fill="#CFA8CC"/>
<path d="M386.044 150C387.362 150.07 388.699 150.282 390 150.496C389.655 152.323 389.359 154.158 389.112 156C387.73 155.878 386.35 155.626 385 155.329L386.044 150Z" fill="#CFA8CC"/>
<path d="M387 128.001L390.956 128C390.94 129.666 390.981 131.334 391 133L387.121 132.869C387.107 131.248 387.03 129.623 387 128.001Z" fill="#CFA8CC"/>
<path d="M380.325 173L384 174.073C383.337 175.71 382.638 177.343 382.045 179C381.041 178.636 380.054 178.312 379.01 178.048C378.986 177.129 379.01 176.213 379.032 175.295C379.608 174.608 379.985 173.794 380.325 173Z" fill="#CFA8CC"/>
<path d="M384.871 158C385.92 158.13 386.964 158.403 388 158.633L386.956 164C385.974 163.934 384.948 163.53 384 163.234L384.871 158Z" fill="#CFA8CC"/>
<path d="M382.492 165C383.653 165.198 384.851 165.615 386 165.907C385.504 167.593 385.048 169.291 384.634 171C383.509 170.906 382.072 170.161 381 169.755L382.492 165Z" fill="#CFA8CC"/>
<path d="M383.409 87C383.829 87.0776 384.261 87.1796 384.577 87.4599C385.408 88.1974 385.172 89.5846 385.153 90.5379C386.309 90.4837 387.457 90.3387 388.415 91.0724C388.728 91.3124 389.002 91.6546 389 92.0438C388.998 92.3282 388.846 92.5905 388.633 92.7899C387.763 93.6054 386.347 93.4597 385.22 93.4353C385.227 94.3053 385.393 95.5638 384.822 96.3032C384.458 96.776 383.964 96.8816 383.375 97C383.038 96.8608 382.66 96.7247 382.405 96.4722C381.639 95.7121 381.847 94.4166 381.87 93.4731C380.809 93.5017 379.562 93.6047 378.641 93.0401C378.316 92.8405 378.035 92.5305 378.004 92.1608C377.97 91.7687 378.171 91.4222 378.47 91.1567C379.386 90.343 380.751 90.4519 381.921 90.455C381.863 89.6558 381.645 88.5408 382.08 87.8134C382.375 87.3224 382.857 87.1676 383.409 87Z" fill="#CFA8CC"/>
<path d="M189.628 208C186.889 205.421 184.707 201.969 182.682 198.824C173.851 185.106 167.555 169.334 165.22 153.143C165.08 152.163 164.952 151.183 164.836 150.2C164.72 149.217 164.616 148.234 164.524 147.249C164.432 146.264 164.352 145.278 164.284 144.29C164.216 143.304 164.161 142.316 164.117 141.327C164.074 140.339 164.042 139.35 164.023 138.361C164.004 137.372 163.997 136.383 164.002 135.393C164.007 134.404 164.024 133.415 164.053 132.426C164.082 131.437 164.124 130.449 164.177 129.461C164.23 128.473 164.296 127.486 164.374 126.499C164.451 125.513 164.541 124.528 164.643 123.544C164.745 122.56 164.859 121.577 164.985 120.596C165.111 119.614 165.249 118.635 165.399 117.657C165.549 116.679 165.711 115.703 165.885 114.729C166.059 113.755 166.244 112.784 166.442 111.814C166.64 110.845 166.85 109.878 167.071 108.914C167.292 107.95 167.526 106.988 167.771 106.03C168.016 105.071 168.273 104.116 168.541 103.164C168.809 102.212 169.09 101.263 169.381 100.318C169.673 99.3725 169.976 98.4309 170.291 97.4932C170.606 96.5552 170.932 95.6214 171.27 94.6917C171.608 93.7618 171.957 92.8363 172.317 91.915C172.678 90.9937 173.049 90.0771 173.432 89.1651C173.815 88.2529 174.209 87.3457 174.614 86.4433C175.02 85.5408 175.436 84.6435 175.863 83.7514C176.29 82.8592 176.728 81.9724 177.177 81.0909C177.626 80.2094 178.086 79.3336 178.556 78.4635C179.027 77.5933 179.508 76.729 179.999 75.8708C180.491 75.0125 180.993 74.1603 181.505 73.3143C182.018 72.4683 182.541 71.6287 183.074 70.7956C183.607 69.9625 184.15 69.136 184.704 68.3161C185.257 67.4964 185.82 66.6835 186.394 65.8776C186.967 65.0716 187.55 64.2728 188.143 63.4811C188.675 62.7609 189.215 62.0466 189.762 61.3382C190.31 60.6299 190.865 59.9276 191.428 59.2315C191.991 58.5353 192.562 57.8454 193.14 57.1618C193.718 56.4781 194.304 55.8008 194.897 55.1301C195.49 54.4592 196.09 53.7949 196.697 53.1373C197.305 52.4796 197.919 51.8286 198.541 51.1844C199.163 50.5401 199.792 49.9028 200.427 49.2725C201.063 48.642 201.705 48.0186 202.355 47.4024C203.004 46.786 203.66 46.1768 204.323 45.5748C204.985 44.973 205.655 44.3784 206.33 43.791C207.006 43.2036 207.688 42.6238 208.376 42.0516C209.064 41.4791 209.759 40.9144 210.46 40.3572C211.16 39.8003 211.867 39.251 212.58 38.7093C213.293 38.1676 214.011 37.6339 214.736 37.108C215.46 36.5822 216.19 36.0643 216.926 35.5545C217.661 35.0446 218.403 34.5428 219.149 34.0491C219.896 33.5555 220.648 33.0701 221.406 32.5929C222.163 32.1159 222.925 31.6471 223.693 31.1865C224.46 30.7261 225.233 30.2742 226.01 29.8307C226.788 29.3871 227.57 28.9522 228.357 28.5259C229.144 28.0996 229.936 27.6819 230.732 27.2729C231.528 26.864 232.328 26.4637 233.133 26.0723C233.938 25.6808 234.747 25.2982 235.561 24.9245C236.374 24.5508 237.191 24.1861 238.012 23.8303C238.834 23.4745 239.659 23.1277 240.488 22.79C241.316 22.4523 242.149 22.1237 242.985 21.8042C243.821 21.4847 244.66 21.1745 245.503 20.8734C246.346 20.5723 247.192 20.2806 248.041 19.998C248.89 19.7155 249.742 19.4423 250.598 19.1785C251.453 18.9146 252.311 18.6602 253.172 18.4152C254.032 18.1701 254.896 17.9346 255.761 17.7084C256.627 17.4823 257.496 17.2657 258.366 17.0587C261.43 16.3455 264.491 15.6679 267.606 15.2198C290.567 11.9174 312.871 15.3955 334.024 24.7444C336.916 26.0226 343.562 28.9903 346 30.8133C344.14 31.9044 316.973 60.1252 315.446 62.5387C312.867 59.5998 309.405 57.0144 306.446 54.4271L300.58 49.2862C298.406 47.3627 296.291 45.2995 293.739 43.8768C291.421 42.5844 288.689 41.9103 286.051 41.7443C279.65 41.3411 274.982 43.965 270.34 48.102C263.996 53.7559 257.416 59.0894 250.996 64.6447L233.831 64.6441C230.504 64.64 226.79 64.2487 223.535 64.9457C222.05 65.2641 220.844 65.9361 219.774 67.0038C217.301 69.4722 216.813 72.5121 216.841 75.8801C216.9 82.7855 216.996 89.6832 216.952 96.5904L201.076 110.197C198.212 112.642 194.086 115.43 191.955 118.452C190.567 120.422 189.922 122.753 189.731 125.133C189.59 126.904 189.65 128.709 189.655 130.485L189.67 138.854L189.658 166.334C189.657 169.964 189.903 173.745 189.627 177.356C189.524 179.038 189.58 180.717 189.544 182.4C189.657 188.115 189.697 193.83 189.664 199.546C189.66 202.349 189.777 205.205 189.628 208Z" fill="#F5EAFF"/>
<path d="M187 178.15C187.674 177.792 188.341 177.408 189 177C188.91 179 188.959 180.998 188.928 183C188.052 181.633 187.545 179.788 187 178.15Z" fill="#CFA8CC"/>
<path d="M210.344 58C211.323 58.8315 212.152 59.9103 213 60.8705C211.927 61.9198 210.848 62.963 209.763 64C208.822 63.238 207.872 62.4883 207 61.6501C208.032 60.3619 209.185 59.1775 210.344 58Z" fill="#CFA8CC"/>
<path d="M215.837 54C216.721 54.6482 217.359 55.6743 218 56.5365C217.033 57.2811 216.172 58.164 215.292 59C214.507 58.2145 213.761 57.3858 213 56.5783C213.97 55.7435 214.916 54.8841 215.837 54Z" fill="#CFA8CC"/>
<path d="M182.003 149.016C182.149 148.986 182.05 148.995 182.297 149.075C182.871 150.234 182.86 152.167 183 153.465C182.025 153.619 181.052 153.821 180.08 154C179.919 153.998 179.872 153.939 179.737 153.856C179.151 152.613 179.141 150.89 179 149.526L182.003 149.016Z" fill="#CFA8CC"/>
<path d="M221.786 49C222.646 49.8484 223.33 51.0648 224 52.0927C222.881 53.1432 221.705 54.0734 220.499 55C219.595 54.0274 218.799 53.0201 218 51.9485C219.169 50.8621 220.493 49.9023 221.786 49Z" fill="#CFA8CC"/>
<path d="M246.565 35L246.76 35.1061C247.369 36.3016 247.672 37.8316 248 39.1749C246.776 39.6474 245.622 40.3313 244.463 41C243.683 39.9479 243.303 38.0817 243 36.7378L246.565 35Z" fill="#CFA8CC"/>
<path d="M188.513 89C189.619 89.6261 190.848 90.1483 192 90.7108C191.179 92.1077 190.618 93.6139 189.77 95C188.454 94.7199 187.212 94.178 186 93.6539C186.955 92.195 187.644 90.5151 188.513 89Z" fill="#CFA8CC"/>
<path d="M227.677 45C228.617 45.4862 229.433 47.0358 230 47.8725L226.274 50L226.041 49.9983C225.149 49.334 224.575 48.2522 224 47.3601C225.156 46.4915 226.408 45.7274 227.677 45Z" fill="#CFA8CC"/>
<path d="M185.761 96C186.838 96.4488 187.918 96.8911 189 97.3268C188.393 98.8571 187.899 100.433 187.387 102C186.298 101.564 185.117 101.253 184 100.887C184.545 99.2449 185.169 97.6244 185.761 96Z" fill="#CFA8CC"/>
<path d="M192.206 82C193.11 82.6421 194.106 83.1069 195 83.7862L192.995 88C191.981 87.4963 190.983 86.9617 190 86.3963C190.72 84.9222 191.455 83.4568 192.206 82Z" fill="#CFA8CC"/>
<path d="M240.078 38C240.921 38.4763 241.611 40.4313 242 41.2804C240.686 41.8995 239.294 42.417 237.956 43L237.776 42.9363C236.891 42.0718 236.474 40.8814 236 39.8063C237.372 39.2267 238.731 38.6246 240.078 38Z" fill="#CFA8CC"/>
<path d="M266.974 30L267.299 30.0146C267.893 30.7214 267.891 32.4138 268 33.3053C266.75 33.6054 265.455 33.7864 264.182 34C263.999 33.966 264.064 33.9945 263.911 33.9012C263.412 33.5953 263.106 31.1375 263 30.5856L266.974 30Z" fill="#CFA8CC"/>
<path d="M205.274 64C206.328 64.4046 207.264 65.7172 208 66.5497C206.915 67.6118 206.007 68.8152 205.068 70L202 67.8039C203.019 66.4938 204.185 65.2567 205.274 64Z" fill="#CFA8CC"/>
<path d="M178 134C178.975 134.002 179.949 134.061 180.922 134.11C180.883 135.709 180.951 137.308 181 138.905C180.002 138.904 179.002 138.962 178.005 139L178 134Z" fill="#CFA8CC"/>
<path d="M233.983 41C234.77 41.3283 235.638 43.7905 236 44.6413C234.686 45.4431 233.364 46.2293 232.034 47C231.155 46.2522 230.512 44.4874 230 43.4124C231.345 42.6345 232.676 41.8477 233.983 41Z" fill="#CFA8CC"/>
<path d="M178 142.065C179.237 142.063 180.474 142.041 181.71 142C181.764 143.558 182.152 145.107 181.934 146.67L178.311 147C178.264 145.358 178.092 143.707 178 142.065Z" fill="#CFA8CC"/>
<path d="M280.788 28.0693L281.901 28C281.954 29.5558 281.987 31.1123 282 32.6695C281.034 32.7182 280.069 32.7812 279.105 32.8584L278.102 33C278.099 31.4362 278.08 29.8873 278 28.3257C278.929 28.232 279.858 28.1465 280.788 28.0693Z" fill="#CFA8CC"/>
<path d="M195.85 76C196.92 76.6426 197.971 77.2948 199 77.9913C198.02 79.2782 197.338 80.7421 196.309 82C195.232 81.3822 194.104 80.824 193 80.2442C193.984 78.8519 194.902 77.4128 195.85 76Z" fill="#CFA8CC"/>
<path d="M178.287 126C179.522 126.051 180.764 126.215 182 126.292C181.763 127.82 181.712 129.385 181.61 130.925C180.483 131.112 179.138 130.9 178 130.826C177.991 129.226 178.172 127.597 178.287 126Z" fill="#CFA8CC"/>
<path d="M260.385 31.0333C260.572 30.9847 260.705 31.0001 260.896 31.0127C261.6 31.7857 261.778 34.0685 262 35.0997C260.533 35.3815 259.07 35.6793 257.61 35.9932C257.476 36.0148 257.335 35.9795 257.201 35.9622C256.456 34.9994 256.261 33.2449 256 32.0668C257.446 31.661 258.917 31.355 260.385 31.0333Z" fill="#CFA8CC"/>
<path d="M182.427 103L186 104.003C185.444 105.634 185.137 107.335 184.717 109L181 108.081C181.413 106.376 181.938 104.688 182.427 103Z" fill="#CFA8CC"/>
<path d="M274.456 29L274.624 29.1052C275.02 30.1454 274.953 31.4753 275 32.575C273.531 32.7018 272.063 32.8435 270.598 33C269.984 32.0632 270.049 30.4906 270 29.4329C271.471 29.2334 272.976 29.1359 274.456 29Z" fill="#CFA8CC"/>
<path d="M179.434 118C180.619 118.242 181.808 118.462 183 118.659C182.821 120.394 182.621 122.127 182.4 123.856C181.785 124.262 179.766 123.694 179 123.564C179.016 121.726 179.273 119.833 179.434 118Z" fill="#CFA8CC"/>
<path d="M187.37 170C187.905 170.537 188.705 173.816 189 174.761C187.939 175.16 186.882 175.573 185.83 176C185.192 174.354 184.605 172.682 184 171.021C185.135 170.72 186.251 170.363 187.37 170Z" fill="#CFA8CC"/>
<path d="M201.182 69C202.246 69.6888 203.119 70.6214 204 71.5701C203.103 73.0999 202.234 74.6941 201.081 76C200.024 75.2799 198.942 74.5021 198 73.6015C199.05 72.0586 200.111 70.5248 201.182 69Z" fill="#CFA8CC"/>
<path d="M253.283 33.0145C253.516 32.9774 253.537 33.014 253.746 33.0948C254.402 34.0226 254.675 35.4 255 36.4619C253.664 37.1083 252.219 37.5347 250.799 37.9843C250.685 38.017 250.534 37.9894 250.415 37.983C249.611 37.1468 249.321 35.4748 249 34.3925C250.392 33.8549 251.853 33.453 253.283 33.0145Z" fill="#CFA8CC"/>
<path d="M180.889 111C181.924 111.251 182.95 111.5 184 111.643C183.702 113.421 183.442 115.207 183.217 117C182.154 116.694 181.072 116.457 180 116.196C180.408 114.519 180.618 112.718 180.889 111Z" fill="#CFA8CC"/>
<path d="M185.229 163L185.388 163.039C186.228 164.253 186.595 166.521 187 167.978C185.912 168.304 184.828 168.645 183.748 169C182.96 168.32 182.306 165.183 182 164.051C183.068 163.668 184.144 163.318 185.229 163Z" fill="#CFA8CC"/>
<path d="M183.64 156C184.458 157.363 184.671 159.687 185 161.243L181.305 162C181.27 161.978 181.231 161.961 181.201 161.933C180.45 161.212 180.155 157.925 180 156.818C181.227 156.618 182.433 156.295 183.64 156Z" fill="#CFA8CC"/>
<path d="M304.186 28.0047C304.823 27.9988 305.452 27.9471 305.946 28.3976C306.636 29.027 306.5 30.2724 306.515 31.1007C307.495 31.149 308.364 31.1747 309.245 31.6366C309.642 31.8448 309.865 32.0442 310 32.4611C309.954 32.6983 309.962 32.7988 309.801 32.9972C309.102 33.861 307.446 33.8443 306.404 33.9432C306.428 35.1391 306.426 35.9695 305.657 36.9817C305.562 36.9884 305.467 36.9936 305.372 36.9974C304.892 37.0143 304.464 36.9579 304.132 36.5927C303.553 35.9565 303.734 34.6991 303.741 33.9218C302.649 33.9169 301.316 33.9471 300.429 33.2592C300.141 33.0362 300.051 32.8072 300 32.466C300.059 32.2222 300.105 32.0768 300.281 31.8803C300.979 31.1012 302.534 31.1397 303.511 31.0734C303.59 29.9602 303.651 29.0265 304.186 28.0047Z" fill="#CFA8CC"/>
<path d="M345.835 31.4648C346.285 31.346 346.677 31.194 347.099 31C348.451 32.1284 349.852 33.2621 351.083 34.5216C360.045 43.223 368.613 52.3132 377.375 61.2121C378.961 62.5951 380.469 64.0584 381.899 65.6021C376.456 70.5385 371.578 75.9616 366.341 81.0961C363.523 83.858 352.27 93.6741 351.154 95.842C357.546 101.251 363.883 106.721 370.168 112.252C372.742 114.488 375.847 116.46 378.018 119.1C378.93 120.209 379.408 121.454 379.537 122.878C379.687 124.54 379.604 126.247 379.595 127.916L379.58 135.477L379.572 160.523C379.571 165.308 379.379 170.17 379.703 174.944C379.682 175.891 379.66 176.837 379.683 177.784L379.695 180.625L379.701 184.131C379.538 189.551 379.681 194.945 379.675 200.364C379.673 202.111 379.39 206.291 379.74 207.757C379.45 209.306 379.715 211.158 379.719 212.737L379.684 221.622C379.69 225.497 380.03 229.729 378.996 233.496C378.52 235.226 377.736 236.668 376.552 238.012C380.456 238.042 384.359 238.047 388.263 238.028C390.301 238.02 392.508 237.779 394.52 238.107C395.216 238.22 395.87 238.43 396.363 238.961C396.841 239.477 397.054 240.352 396.988 241.04C396.945 241.497 396.754 241.888 396.396 242.182C395.271 243.106 393.77 242.755 392.453 242.807C390.439 242.685 388.356 242.823 386.336 242.847C382.899 242.886 379.461 242.903 376.023 242.897L338.652 242.9L223.032 242.898L187.579 242.895L179.294 242.915C177.234 242.938 175.11 243.156 173.074 242.786C172.493 242.073 172.071 241.506 172.006 240.559C171.966 239.977 172.132 239.409 172.548 238.987C173.057 238.472 173.68 238.301 174.374 238.185C176.591 237.816 179.057 238.018 181.305 238.022L192.662 238.018C191.441 236.677 190.54 235.318 190.036 233.562C189.274 230.909 189.504 228.064 189.505 225.335L189.506 213.777C189.507 211.878 189.637 209.908 189.484 208.018L189.474 207.9C189.623 205.117 189.506 202.273 189.51 199.481C189.542 193.79 189.502 188.099 189.39 182.408C189.426 180.733 189.37 179.06 189.473 177.386C189.749 173.79 189.502 170.025 189.503 166.41L189.516 139.047L189.501 130.714C189.496 128.945 189.435 127.148 189.577 125.384C189.768 123.014 190.413 120.693 191.801 118.732C193.931 115.722 198.057 112.946 200.921 110.512L216.796 96.9629C216.84 90.0849 216.744 83.2165 216.685 76.3404C216.657 72.9867 217.145 69.9597 219.618 67.5018C220.687 66.4386 221.893 65.7694 223.379 65.4524C226.633 64.7584 230.347 65.148 233.674 65.1521L250.837 65.1526C257.257 59.621 263.837 54.3101 270.18 48.6802C274.821 44.5607 279.489 41.948 285.89 42.3495C288.528 42.5148 291.259 43.186 293.578 44.473C296.13 45.8896 298.244 47.944 300.418 49.8593L306.284 54.9785C309.242 57.5548 312.704 60.1292 315.283 63.0556C316.81 60.6523 343.975 32.5514 345.835 31.4648Z" fill="#4D1B62"/>
<path d="M216.998 103C216.99 104.52 216.99 106.041 217 107.561C214.334 109.502 211.938 111.87 209.428 114.006C205.93 116.985 202.244 119.868 198.897 123C197.894 122.31 196.952 121.534 196 120.779C198.11 119.098 200.126 117.274 202.199 115.547C207.2 111.441 212.133 107.259 216.998 103Z" fill="#FCFCFC"/>
<path d="M352.554 107.746C351.698 106.587 352.095 104.397 352.073 103C359.137 108.872 366.113 114.845 373 120.92C372.148 121.612 371.275 122.288 370.442 123C368.4 121.398 366.467 119.652 364.495 117.966L352.554 107.746Z" fill="#FCFCFC"/>
<path d="M258 64.9306L267.326 56.895C270.57 54.0605 273.893 50.44 277.776 48.4984C278.06 48.3586 278.348 48.2281 278.64 48.1069C278.933 47.9858 279.229 47.8743 279.529 47.7725C279.829 47.6707 280.132 47.5788 280.439 47.4968C280.745 47.4147 281.053 47.3427 281.364 47.2809C281.676 47.219 281.988 47.1673 282.303 47.1257C282.617 47.0842 282.933 47.0529 283.25 47.0319C283.566 47.011 283.883 47.0003 284.201 47C284.518 46.9997 284.835 47.0097 285.152 47.0301C285.418 47.0464 285.683 47.0703 285.947 47.1017C286.212 47.1331 286.475 47.1722 286.738 47.2189C287 47.2655 287.26 47.3196 287.519 47.3813C287.778 47.4428 288.035 47.5117 288.29 47.588C288.545 47.6645 288.798 47.7481 289.048 47.8388C289.298 47.9297 289.545 48.0277 289.789 48.1327C290.033 48.2377 290.274 48.3496 290.511 48.4686C290.749 48.5874 290.982 48.7129 291.212 48.8453C294.003 50.4742 296.229 52.9712 298.661 55.0586C302.458 58.3179 306.428 61.4101 310 64.9141C308.245 64.9691 306.484 65.0815 304.733 64.9036C302.369 62.961 300.037 60.9827 297.735 58.9689C294.947 56.5037 292.106 53.4124 288.783 51.6774C287.42 50.9658 285.927 50.6202 284.387 50.6039C282.646 50.5858 280.939 50.946 279.389 51.7317C276.505 53.1932 274.158 55.6978 271.768 57.8105C269.138 60.1352 266.496 62.4423 263.973 64.8809C261.988 64.8195 259.987 64.8995 258 64.9306Z" fill="#FCFCFC"/>
<path d="M199 123.274C202.306 120.175 205.946 117.323 209.401 114.376C211.879 112.263 214.246 109.92 216.879 108L216.885 127.333C216.901 130.892 217.051 134.438 216.982 138L199 123.274Z" fill="#972253"/>
<path d="M352.528 107L364.859 118.047C366.895 119.869 368.892 121.756 371 123.488C369.817 124.906 368.143 126.038 366.772 127.27C361.981 131.576 357.018 135.668 352.248 140C352.275 133.424 352.257 126.849 352.191 120.273C352.152 116.761 351.906 113.175 352.039 109.671C352.073 108.766 352.083 107.803 352.528 107Z" fill="#972253"/>
<path d="M264 64.8848C266.538 62.5133 269.195 60.2696 271.841 58.0089C274.245 55.9544 276.605 53.5187 279.506 52.0974C281.066 51.3333 282.783 50.983 284.534 51.0006C286.083 51.0165 287.585 51.3526 288.956 52.0446C292.299 53.7318 295.157 56.7381 297.961 59.1354C300.276 61.0939 302.622 63.0177 305 64.9069C303.088 65.0759 301.089 64.9636 299.167 64.9614L288.484 64.9527L273.706 64.9589C270.474 64.9631 267.229 65.0263 264 64.8848Z" fill="#972253"/>
<path d="M374.76 127C374.812 127.078 374.811 127.07 374.845 127.199C375.13 128.291 374.914 133.682 374.915 135.137L374.916 158.473L374.92 206.735L374.926 221.166C374.94 224.205 375.108 227.28 374.885 230.313C374.755 232.079 373.927 233.511 373.039 235C367.501 230.059 361.607 225.527 355.828 220.872C349.709 215.852 343.549 210.88 337.35 205.958C327.622 197.936 317.646 190.235 308 182.112C311.273 179.083 314.934 176.322 318.372 173.471L339.869 155.751L365.876 134.461C368.859 132.022 371.719 129.35 374.76 127Z" fill="#FCFCFC"/>
<path d="M194.217 127C196.429 128.252 198.399 130.343 200.371 131.96C205.82 136.418 211.234 140.917 216.614 145.459L246.522 170.186C251.347 174.166 256.279 178.053 261 182.152C251.283 190.18 241.512 198.142 231.686 206.038C229.618 207.823 227.431 209.503 225.311 211.227L212.176 221.918C206.823 226.289 201.608 230.995 195.981 235C195.065 233.977 194.402 232.911 194.24 231.513C193.787 227.613 194.115 223.519 194.116 219.594L194.085 197.524L194.167 153.038C194.182 144.362 194.086 135.675 194.217 127Z" fill="#FCFCFC"/>
<path d="M303.903 185C316.33 194.833 328.676 204.766 340.942 214.797C350.352 222.411 359.939 229.855 369 237.881C364.269 238.103 359.493 237.947 354.757 237.946L329.211 237.944L250.972 237.944L200 237.938C202.402 235.688 205.123 233.686 207.684 231.615L221.28 220.592L264.992 185.07C268.854 187.895 272.52 191.12 276.189 194.194C277.809 195.552 279.355 197.118 281.151 198.241C282.041 198.798 283.035 199.234 284.093 199.32C285.318 199.42 286.474 199.015 287.517 198.407C289.671 197.152 291.525 195.221 293.436 193.621C296.91 190.729 300.399 187.855 303.903 185Z" fill="#FCFCFC"/>
<path d="M345.78 31.466C346.231 31.3468 346.626 31.1945 347.049 31C348.407 32.1311 349.814 33.2675 351.05 34.5301C360.051 43.2523 368.656 52.3643 377.456 61.2846C379.05 62.6709 380.564 64.1377 382 65.6851C376.534 70.6333 371.634 76.0694 366.374 81.2163C363.545 83.9848 352.243 93.8244 351.122 95.9975C349.938 97.2227 348.56 98.3684 347.492 99.6917C347.418 114.121 347.661 128.566 347.352 142.992C342.538 147.085 337.6 151.02 332.72 155.034L307.849 175.603L293.786 187.312C290.694 189.913 287.696 192.667 284.389 195C281.204 192.695 278.32 189.988 275.297 187.48L257.288 172.584L235.314 154.468C230.546 150.555 225.69 146.767 221.107 142.635L221.109 97.2973C221.109 93.6533 221.135 90.0064 221.088 86.3629C221.043 82.8359 220.922 79.3195 221.075 75.7923C221.133 74.4521 221.094 72.2136 222.164 71.2609C223.028 70.4908 223.942 70.2991 225.068 70.217C228.516 69.9649 232.057 70.244 235.521 70.2471L258.353 70.2507L288.247 70.2368C294.863 70.226 301.506 70.0827 308.116 70.3838C309.619 68.6779 314.244 64.5756 315.096 63.1325C316.629 60.7235 343.912 32.5551 345.78 31.466Z" fill="#FCFCFC"/>
<path d="M350.955 35C359.887 43.7304 366.356 50.1946 377 61.4352C375.666 62.5107 374.456 63.8324 373.251 65.0515L367.42 70.9738L348.28 90.4046L281.898 157C266.044 140.886 250.078 124.885 234 108.996L251.404 91.4857C253.744 89.1256 256.19 86.8472 258.43 84.3906C265.583 91.5982 272.81 98.7562 279.874 106.05C282.401 103.762 284.722 101.229 287.09 98.7775L295.227 90.5101L331.862 53.7249L343.13 42.2983C345.662 39.7129 348.266 37.4257 350.955 35Z" fill="#972253"/>
<path d="M350.712 41L365 55.6868C364.357 56.3272 358.211 57.346 356.738 57.7945C352.83 58.9843 349.1 60.6263 345.456 62.4654C343.753 63.343 342.081 64.2755 340.439 65.263C338.797 66.2504 337.189 67.2908 335.614 68.3841C334.04 69.4772 332.503 70.6209 331.004 71.8153C329.505 73.0096 328.046 74.2518 326.627 75.5421C314.571 86.4269 304.443 99.9044 295.628 113.516C291.626 119.696 287.669 126.03 285.178 133C281.028 124.387 274.969 110.296 265.286 106.94C261.474 105.619 257.251 106.099 253.672 107.892C250.864 109.298 248.452 111.503 246.468 113.921C244.573 112.147 242.754 110.34 241 108.424C244.213 105.341 247.298 102.128 250.447 98.9786C253.19 96.2342 255.989 93.6273 258.548 90.7003C262.03 94.3647 265.668 97.8668 269.229 101.453C272.829 105.076 276.345 108.776 279.902 112.44C282.785 110.076 285.312 107.146 287.913 104.475L301.25 90.8911L350.712 41Z" fill="#CFA8CC"/>
<path d="M364.732 56C366.668 57.6089 368.2 59.6138 370 61.3597L281.605 150C274.493 142.706 267.323 135.47 260.095 128.292C255.432 123.605 250.9 118.72 246 114.284C247.987 111.864 250.403 109.656 253.216 108.249C256.801 106.455 261.031 105.974 264.849 107.297C274.548 110.656 280.618 124.758 284.775 133.379C287.27 126.403 291.234 120.063 295.242 113.878C304.073 100.255 314.218 86.7662 326.294 75.8721C327.715 74.5808 329.176 73.3375 330.678 72.1422C332.18 70.9468 333.72 69.802 335.297 68.708C336.873 67.6138 338.484 66.5726 340.129 65.5843C341.774 64.596 343.449 63.6626 345.155 62.7843C348.805 60.9436 352.541 59.3003 356.456 58.1095C357.932 57.6606 364.087 56.6409 364.732 56Z" fill="#B866A6"/>
</svg>
