<svg width="151" height="150" viewBox="0 0 151 150" fill="none" xmlns="http://www.w3.org/2000/svg">
<path d="M123.085 20.0695C125.281 20.0695 127.062 18.1406 127.062 15.7711V8.98359C127.062 6.60937 125.281 4.6875 123.085 4.6875H27.9148C25.7164 4.6875 23.9375 6.60937 23.9375 8.98359V15.7711C23.9375 18.1406 25.7164 20.0672 27.9148 20.0672H30.3828V129.93H27.9148C25.7164 129.93 23.9375 131.852 23.9375 134.227V141.012C23.9375 143.386 25.7164 145.312 27.9148 145.312H123.083C125.281 145.312 127.062 143.386 127.062 141.012V134.227C127.062 131.852 125.281 129.93 123.085 129.93H120.617V20.0695H123.085ZM34.6789 129.933V20.0695H38.7195C37.6766 20.0695 36.8281 20.8547 36.8281 21.825V27.0984C36.8281 28.0688 37.6672 28.8492 38.7078 28.8563C38.7078 48.2836 41.8203 67.1648 64.3297 73.6711L65.4406 74.0227C66.4133 74.332 67.5781 74.6977 68.1734 75C67.5781 75.2977 66.4273 75.6633 65.4594 75.968L64.3977 76.3078C41.8227 82.8375 38.7102 101.716 38.7102 121.144C37.6719 121.151 36.8305 121.934 36.8305 122.899V128.173C36.8305 129.143 37.6766 129.933 38.7219 129.933H34.6789ZM84.2797 80.168L85.4375 80.5336C101.389 85.1461 107.616 95.6391 107.977 118.945H77.4125C77.1055 108.108 76.3367 80.4305 76.3367 75C76.3367 73.1602 79.7398 70.5797 81.3055 69.6586C87.9125 65.7563 96.4109 58.0359 96.4109 50.0016H54.5844C54.5844 58.0359 63.0828 65.7563 69.6898 69.6586C71.2508 70.582 74.6586 73.1602 74.6586 75C74.6586 80.5734 73.8922 108.136 73.5852 118.945H43.0227C43.3812 95.6461 49.6156 85.1484 65.6281 80.5148L66.7273 80.1703C69.8047 79.2 72.7109 78.2812 72.7109 75.0023C72.7109 71.7188 69.7953 70.7977 66.7039 69.8273L65.5602 69.4641C49.6109 64.8516 43.3836 54.3609 43.025 31.057H107.982C107.621 54.3609 101.389 64.8586 85.3812 69.4852L84.3102 69.825C81.2164 70.7953 78.2938 71.7164 78.2938 75.0023C78.2891 78.2789 81.2 79.1977 84.2797 80.168ZM116.319 129.933H112.283C113.323 129.933 114.172 129.143 114.172 128.173V122.899C114.172 121.931 113.328 121.151 112.29 121.146C112.29 101.716 109.177 82.8328 86.668 76.3266L85.543 75.9703C84.5773 75.6656 83.4219 75.3 82.8266 75.0023C83.4242 74.7 84.5914 74.3344 85.5664 74.025L86.6047 73.6945C109.177 67.1695 112.29 48.2883 112.29 28.8586C113.326 28.8539 114.172 28.0711 114.172 27.0984V21.825C114.172 20.8547 113.326 20.0695 112.283 20.0695H116.319V129.933Z" fill="black"/>
</svg>
