<svg width="151" height="150" viewBox="0 0 151 150" fill="none" xmlns="http://www.w3.org/2000/svg">
<path d="M127.063 60C131.793 62.7238 135.628 66.7652 138.101 71.6314C140.574 76.4975 141.577 81.978 140.989 87.4046C140.4 92.8312 138.246 97.9693 134.787 102.192C131.329 106.415 126.717 109.541 121.513 111.188C119.673 119.534 115.039 127.002 108.376 132.356C101.713 137.709 93.422 140.627 84.8751 140.625H70.8126C69.5694 140.625 68.3771 140.131 67.498 139.252C66.6189 138.373 66.1251 137.181 66.1251 135.938C66.1251 134.694 66.6189 133.502 67.498 132.623C68.3771 131.744 69.5694 131.25 70.8126 131.25H84.8751C90.6934 131.252 96.3691 129.45 101.121 126.092C105.872 122.734 109.466 117.985 111.406 112.5H108.313C107.069 112.5 105.877 112.006 104.998 111.127C104.119 110.248 103.625 109.056 103.625 107.813V60.9375C103.625 59.6943 104.119 58.502 104.998 57.6229C105.877 56.7439 107.069 56.25 108.313 56.25H113C114.519 56.25 116.009 56.3719 117.472 56.6063C116.417 46.2084 111.539 36.5723 103.785 29.5652C96.0306 22.5581 85.9514 18.6787 75.5001 18.6787C65.0488 18.6787 54.9695 22.5581 47.2152 29.5652C39.4609 36.5723 34.5835 46.2084 33.5282 56.6063C35.007 56.3692 36.5024 56.2501 38.0001 56.25H42.6876C43.9308 56.25 45.1231 56.7439 46.0021 57.6229C46.8812 58.502 47.3751 59.6943 47.3751 60.9375V107.813C47.3751 109.056 46.8812 110.248 46.0021 111.127C45.1231 112.006 43.9308 112.5 42.6876 112.5H38.0001C31.803 112.507 25.7772 110.467 20.8588 106.697C15.9404 102.927 12.4049 97.638 10.8015 91.652C9.19807 85.6659 9.6166 79.3179 11.992 73.5942C14.3675 67.8705 18.5668 63.0916 23.9376 60C23.9376 46.3248 29.37 33.2097 39.0399 23.5398C48.7097 13.87 61.8249 8.4375 75.5001 8.4375C89.1753 8.4375 102.29 13.87 111.96 23.5398C121.63 33.2097 127.063 46.3248 127.063 60ZM38.0001 65.625C33.0273 65.625 28.2581 67.6004 24.7418 71.1168C21.2255 74.6331 19.2501 79.4022 19.2501 84.375C19.2501 89.3478 21.2255 94.117 24.7418 97.6333C28.2581 101.15 33.0273 103.125 38.0001 103.125V65.625ZM131.75 84.375C131.75 79.4022 129.775 74.6331 126.258 71.1168C122.742 67.6004 117.973 65.625 113 65.625V103.125C117.973 103.125 122.742 101.15 126.258 97.6333C129.775 94.117 131.75 89.3478 131.75 84.375Z" fill="black"/>
</svg>
