<svg width="157" height="92" viewBox="0 0 157 92" fill="none" xmlns="http://www.w3.org/2000/svg">
<path d="M100.859 36.4734C101.492 36.5608 102.245 36.6559 102.743 37.0872C102.978 37.292 103.113 37.5635 103.126 37.8764C103.163 38.783 102.201 39.7746 101.636 40.404C101.326 40.6201 100.99 40.7562 100.614 40.8115C100.442 40.8367 100.258 40.8017 100.126 40.6819C99.913 40.4879 99.8402 40.1537 99.8022 39.8812C99.6234 38.6018 100.12 37.4782 100.859 36.4734Z" fill="#40304B"/>
<path d="M99.0014 41.5853C99.6015 41.9948 100.686 42.5847 101.016 43.2312C101.122 43.4388 101.096 43.5906 101.05 43.8111C100.891 44.5718 100.482 45.3386 100.181 46.0578C99.644 47.3401 99.1046 48.7084 98.7999 50.0657C98.6156 50.887 99.0767 52.3318 98.9888 52.606C98.5431 52.6606 98.05 52.7249 97.6229 52.5506C97.1615 52.3624 96.8462 52.0322 96.6645 51.57C95.7231 49.1773 97.9335 43.8868 99.0014 41.5853Z" fill="#40304B"/>
<path d="M94.8305 38.2372C95.6318 38.4179 96.2624 38.8542 96.9422 39.2872C96.318 39.9702 95.8507 40.699 95.3789 41.4896C96.4534 41.5053 97.5277 41.5267 98.6019 41.554C97.4794 42.7151 96.1704 42.5953 94.676 42.6556C93.6322 44.7707 92.6549 47.0728 92.3777 49.4284C92.3133 49.9754 92.2483 50.6919 92.6363 51.1411C93.7039 52.3765 95.0689 50.0435 95.9507 50.1341L96.0284 50.3039C95.4631 51.1387 94.7923 51.8101 93.8468 52.2057C93.0575 52.5361 92.0849 52.6159 91.2908 52.2535C90.6668 51.9686 90.2706 51.4341 90.0584 50.794C89.2498 48.3537 90.7807 45.0034 91.8363 42.8423C91.4311 42.8334 90.9989 42.8427 90.6285 42.6547C90.1219 42.3976 89.9488 41.897 89.7754 41.3944C90.6706 41.3975 91.5626 41.3996 92.4571 41.3555C93.144 40.2432 93.7879 39.0597 94.8305 38.2372Z" fill="#40304B"/>
<path d="M115.418 40.4967C116.053 40.4554 116.658 40.4487 117.257 40.703C117.865 40.9609 118.356 41.4338 118.585 42.0572C118.874 42.8418 118.694 43.8143 118.32 44.541C118.146 44.8792 117.853 45.2637 117.461 45.3578C116.975 45.4742 116.435 45.0433 116.037 44.806C116.43 44.1766 116.918 43.466 117.051 42.724C117.101 42.4457 117.099 42.2194 116.925 41.9828C116.697 41.8841 116.548 41.8646 116.31 41.9547C115.534 42.2484 114.893 43.1322 114.586 43.8695C113.402 46.7184 116.403 46.8385 117.171 48.864C117.435 49.5609 117.263 50.0799 116.983 50.7251C116.428 51.4993 115.697 52.0226 114.8 52.33C113.643 52.7265 111.958 52.8733 110.846 52.2873C110.158 51.925 109.874 51.4389 109.671 50.7237C109.731 50.4818 109.782 50.2268 109.897 50.0039C110.569 48.7033 112.143 48.3067 113.432 47.9241C112.656 47.2968 111.916 46.6851 111.605 45.6905C111.334 44.8204 111.506 43.87 111.941 43.0825C112.66 41.7806 114.012 40.8947 115.418 40.4967ZM113.159 48.9697C112.314 49.2128 111.321 49.5634 110.857 50.3718C110.743 50.571 110.663 50.8154 110.734 51.0435C110.805 51.2715 111.017 51.4015 111.229 51.4794C111.671 51.6414 112.214 51.5991 112.674 51.5642C113.511 51.3815 114.38 51.1647 114.861 50.3799C115.006 50.1429 115.101 49.8635 115.013 49.5865C114.94 49.3576 114.732 49.2096 114.515 49.1326C114.09 48.9822 113.605 48.91 113.159 48.9697Z" fill="#40304B"/>
<path d="M136.297 35.199C136.478 35.1903 136.66 35.1929 136.839 35.2166C137.956 35.3649 137.863 36.5484 138.45 37.2314C139.256 38.171 140.283 37.2836 141.245 37.3881C141.55 37.4213 141.778 37.5437 141.965 37.788C142.973 39.1064 140.996 39.7576 140.755 40.8534C140.533 41.8669 142.039 42.7646 141.779 43.814C141.713 44.0784 141.458 44.2931 141.22 44.408C140.257 44.8734 139.295 43.7839 138.443 43.4868C138.418 43.4782 138.393 43.4707 138.369 43.4626C137.513 43.6965 137.141 44.3445 136.444 44.8136C136.09 45.0514 135.693 45.1236 135.276 45.0358C134.954 44.9678 134.708 44.8676 134.543 44.5679C134.226 43.9888 134.606 42.892 134.753 42.2757C134.126 42.1818 133.482 41.9641 132.924 41.6628C132.561 41.4665 132.142 41.1997 132.032 40.7728C131.959 40.487 132.052 40.2012 132.216 39.9642C132.879 38.9993 134.319 38.7831 135.384 38.5585C135.292 37.8654 135.163 37.0071 135.344 36.3268C135.495 35.7616 135.808 35.4882 136.297 35.199Z" fill="#AA94BF"/>
<path d="M107.324 40.4958C108.069 40.3859 108.894 40.4378 109.526 40.889C110.026 41.246 110.302 41.8029 110.387 42.4012C110.568 43.6672 109.973 44.7273 109.222 45.6834C108.75 45.4003 108.264 45.1483 107.775 44.8962C108.146 44.2315 109.008 43.3421 108.98 42.5418C108.973 42.3479 108.902 42.1833 108.742 42.0648C108.54 41.9151 108.251 41.916 108.021 41.9836C107.244 42.2114 106.391 43.3947 106.037 44.1016C104.62 46.9296 108.348 47.2181 108.897 49.1691C109.058 49.7415 108.867 50.2051 108.595 50.7034C107.967 51.5758 106.883 52.1865 105.853 52.4534C104.663 52.7621 103.143 52.7754 102.065 52.121C101.61 51.8442 101.21 51.4221 101.103 50.8859C101.021 50.4812 101.124 50.0759 101.357 49.7389C102.077 48.6946 103.719 48.2127 104.9 47.9809C104.08 47.3349 103.257 46.6375 102.987 45.579C102.764 44.7067 103.021 43.7981 103.49 43.0516C104.364 41.6609 105.754 40.8609 107.324 40.4958ZM104.981 48.9754C104.03 49.1824 102.696 49.5609 102.162 50.4506C102.063 50.6148 102.049 50.7354 102.067 50.9214C102.204 51.1826 102.393 51.2825 102.665 51.3671C102.993 51.4696 103.356 51.5088 103.698 51.5299C104.655 51.4374 105.645 51.229 106.28 50.4373C106.467 50.2049 106.642 49.9038 106.586 49.5958C106.551 49.4082 106.451 49.2939 106.288 49.1946C105.961 48.9954 105.352 48.9515 104.981 48.9754Z" fill="#40304B"/>
<path d="M125.123 40.7312C125.905 40.7087 126.739 40.8808 127.335 41.4198C127.821 41.8594 128.051 42.465 128.052 43.1133C128.054 44.3843 127.3 45.6211 126.428 46.4991C124.979 47.958 123.514 48.3417 121.507 48.3397C121.495 49.0432 121.521 49.7144 121.872 50.3491C122.132 50.8177 122.546 51.1736 123.073 51.2995C124.228 51.5751 125.394 50.7825 126.14 49.9683C126.424 49.6586 126.741 49.1964 127.102 48.986C127.239 48.9063 127.176 48.9213 127.336 48.9633C127.406 49.1417 127.361 49.2744 127.325 49.4563C127.188 49.7099 127.036 49.9544 126.869 50.19C126.096 51.2914 124.892 52.2986 123.529 52.5159C122.489 52.6816 121.315 52.4446 120.461 51.8246C119.68 51.257 119.248 50.3977 119.093 49.4604C118.751 47.4027 119.5 45.219 120.705 43.5628C121.791 42.0713 123.286 41.0297 125.123 40.7312ZM125.746 42.2139C124.367 43.0343 122.22 45.3624 121.874 46.9088C121.846 47.0357 121.86 47.1425 121.88 47.269C122.02 47.437 122.048 47.4448 122.277 47.4685C122.312 47.4722 122.349 47.4705 122.385 47.4714C123.937 47.0086 124.986 45.7012 125.725 44.3249C125.967 43.8754 126.42 43.0813 126.253 42.5689C126.202 42.4114 126.068 42.2884 125.912 42.2353C125.853 42.215 125.806 42.2164 125.746 42.2139Z" fill="#40304B"/>
<path d="M55.8118 35.6784C56.2545 35.6378 56.6968 35.6097 57.1416 35.6236C58.0745 35.6528 59.0618 35.9619 59.6997 36.6706C60.1016 37.1169 60.3236 37.6931 60.2725 38.2955C60.2088 39.046 59.745 39.7157 59.1849 40.1943C58.4255 40.8431 57.6132 41.1141 56.6163 41.0263C56.1879 40.9885 55.5776 40.8243 55.3226 40.4436C55.2143 40.2822 55.1887 40.1566 55.2203 39.97C55.6467 39.5899 56.3331 40.2388 56.9253 40.0559C57.5464 39.8644 58.0295 39.2655 58.3064 38.7046C58.5112 38.2897 58.7458 37.6136 58.5373 37.1585C58.468 37.0075 58.3438 36.9159 58.19 36.8629C57.5778 36.6519 56.7713 36.847 56.2122 37.1241C55.0285 37.7106 54.0919 38.9086 53.681 40.15C52.6519 43.2597 55.4077 42.8181 55.825 43.6777L55.7229 43.6917L55.8086 43.7392C55.4327 44.1739 54.8084 44.4485 54.3116 44.7316C53.2689 45.3255 52.2822 46.1764 51.6332 47.1935C51.102 48.0262 50.5982 49.2566 50.8438 50.2484C50.9424 50.6462 51.1788 50.9859 51.5472 51.1762C52.1398 51.4825 52.9167 51.3814 53.5257 51.1814C55.9992 50.3689 59.0866 47.3276 60.0824 44.9448C60.4283 44.1174 60.4669 43.1547 60.9018 42.3651C61.201 41.8213 61.7493 41.3199 62.3595 41.1582C62.6953 41.0693 63.1683 40.9756 63.4831 41.1612C63.8271 41.7483 62.3034 47.6512 62.1326 48.7557C62.0101 49.5479 62.0084 50.3171 62.0284 51.117C62.4687 50.7891 62.8299 50.406 63.1861 49.9916C64.5629 48.5083 65.877 46.4294 66.6729 44.587C66.8426 44.1941 67.0183 43.7839 67.1287 43.3695C67.3125 42.6799 67.3139 41.1557 67.8148 40.6862C67.9455 40.6546 68.0529 40.6248 68.1866 40.668C68.7124 40.8379 69.1041 41.446 69.3689 41.8993C69.389 42.2345 69.3971 42.5704 69.3276 42.901C68.7774 45.5233 65.2674 50.3532 63.0709 51.8284C62.5319 52.1906 61.8392 52.4977 61.1768 52.3461C60.6825 52.2328 60.3144 51.8857 60.0541 51.4649C59.3817 50.3789 59.4207 48.5337 59.7246 47.3338C58.2467 49.09 56.8 50.8881 54.6734 51.8924C53.2825 52.5494 51.4805 52.9296 49.9956 52.3664C49.945 52.3475 49.895 52.3273 49.8454 52.3058C49.7958 52.2843 49.7468 52.2615 49.6983 52.2376C49.65 52.2136 49.6023 52.1884 49.5551 52.162C49.508 52.1356 49.4616 52.1079 49.4159 52.0791C49.3702 52.0503 49.3253 52.0204 49.2812 51.9893C49.237 51.9581 49.1937 51.9259 49.1511 51.8926C49.1087 51.8592 49.0671 51.8248 49.0263 51.7894C48.9857 51.7539 48.9459 51.7174 48.9071 51.6799C48.8681 51.6424 48.8302 51.604 48.7934 51.5645C48.7565 51.5251 48.7207 51.4848 48.686 51.4435C48.6511 51.4023 48.6174 51.3602 48.5848 51.3171C48.5522 51.2742 48.5206 51.2304 48.4902 51.1857C48.4598 51.1411 48.4306 51.0958 48.4026 51.0497C48.3745 51.0036 48.3476 50.9568 48.322 50.9094C48.2963 50.8618 48.272 50.8137 48.2489 50.7649C48.2257 50.7163 48.2037 50.667 48.1831 50.6171C47.7506 49.5938 47.8403 48.4065 48.2763 47.4001C49.0785 45.5483 50.6663 44.6581 52.4564 43.9392C51.6311 43.278 51.0114 42.5254 50.8375 41.4541C50.644 40.2623 51.0075 39.0353 51.705 38.0648C52.6738 36.7168 54.2037 35.9461 55.8118 35.6784Z" fill="#40304B"/>
<path d="M81.667 40.7662C82.4727 41.0205 83.0123 41.6862 83.5471 42.3018C82.3868 43.9807 81.6006 45.8738 80.7775 47.7312C81.3789 47.1662 81.8545 46.425 82.3673 45.7791C83.8248 43.943 85.5783 42.2533 87.7797 41.3605C88.4101 41.6414 88.9595 42.0808 89.5006 42.5016C88.3672 44.2529 86.3238 48.4728 86.5672 50.4305C86.6007 50.699 86.7075 50.9896 86.9479 51.1409C87.3627 51.4022 88.1431 51.1406 88.5852 51.0482C88.1564 51.5998 87.6995 52.0358 87.0359 52.304C86.4426 52.5441 85.7629 52.5929 85.1728 52.3177C84.634 52.0663 84.2526 51.5829 84.0632 51.0272C83.3875 49.0445 85.0063 45.8846 85.8549 44.1254C83.1376 46.6729 80.6363 49.3546 78.9514 52.7132C78.6978 52.5592 78.4524 52.3882 78.2045 52.2249C78.1004 52.1305 77.9956 52.0346 77.9026 51.9287C77.385 51.3395 77.4085 50.662 77.4496 49.9294C76.0789 50.9838 74.5728 52.1798 72.7912 52.379C71.6282 52.5089 70.6136 52.142 69.7207 51.4113C68.9687 50.7959 68.6127 49.6393 68.5406 48.6945C68.3847 46.6518 69.3745 44.6407 70.695 43.1358C71.7563 41.9263 73.2538 40.965 74.8959 40.868C75.5901 40.827 76.2977 40.9342 76.8243 41.4234C77.284 41.8504 77.458 42.396 77.4821 43.0117C77.5307 44.2642 76.9918 45.505 76.1514 46.4183C74.7708 47.9185 72.8589 48.2964 70.904 48.382C70.9011 49.1506 70.9348 50.1227 71.4313 50.7482C71.684 51.0664 72.0441 51.2335 72.4472 51.2584C73.2757 51.3095 74.1811 50.8842 74.8868 50.4848C75.9151 49.9031 77.0506 49.0731 77.734 48.0951C78.1311 47.5265 78.3318 46.7101 78.5636 46.0566C79.2117 44.2296 80.1175 42.1338 81.6023 40.8221C81.6236 40.8033 81.6453 40.7849 81.667 40.7662ZM75.4165 42.2152C73.8326 43.0426 71.9635 45.1184 71.3798 46.8121C71.3355 46.9408 71.3281 47.0444 71.3319 47.1787L71.4196 47.3366C71.5342 47.3481 71.6438 47.3607 71.7589 47.3588C73.4067 46.6564 75.0386 45.5138 75.7315 43.7887C75.8705 43.4427 75.986 42.9289 75.8538 42.5648C75.7945 42.4012 75.6807 42.2866 75.5144 42.2302C75.4831 42.2196 75.4492 42.2201 75.4165 42.2152Z" fill="#40304B"/>
<path d="M138.262 46.2298C139.152 46.1073 140.116 46.1599 140.991 46.3582C143.651 46.9607 145.988 48.8931 147.412 51.1697C149.041 53.7753 149.423 56.9414 148.719 59.9093C148.046 62.746 146.422 65.2531 143.903 66.7795C140.323 68.9486 136.297 68.4674 132.424 67.5367C130.868 68.509 129.308 69.4636 127.547 70.0248C125.896 70.5508 124.187 70.7216 122.461 70.7144C120.668 70.7071 118.901 70.5163 117.16 70.0752C110.373 68.3548 103.499 63.3039 97.2309 60.1015C92.2965 57.5805 87.1273 55.561 81.5671 57.3546L80.207 57.9244C80.6458 57.4619 81.1202 57.0574 81.657 56.712C83.1798 55.7322 84.9886 55.4153 86.7708 55.3252C96.3161 54.8428 104.974 62.2304 113.177 66.1835C115.181 67.1491 117.257 68.0425 119.439 68.517C123.249 69.3453 127.215 69.0216 130.545 66.8985C130.085 66.728 129.628 66.5491 129.174 66.3619C126.255 65.1388 122.91 63.1659 121.678 60.0835C121.173 58.8207 121.145 57.4272 121.718 56.1799C122.281 54.9533 123.361 54.0655 124.624 53.6192C126.821 52.8427 129.382 53.4029 131.419 54.3905C131.493 52.6457 131.953 50.9342 132.963 49.488C134.227 47.6794 136.111 46.6117 138.262 46.2298ZM139.072 47.7712C137.347 47.89 135.965 48.4024 134.8 49.7223C133.447 51.256 133 53.0366 132.692 55.0022C133.529 55.5783 134.272 56.2555 134.849 57.0967C135.649 58.2633 135.898 60.2805 137.765 59.975C138.843 59.7986 139.873 58.9196 140.493 58.0501C141.046 57.2746 141.436 56.2136 141.231 55.2632C141.072 54.5195 140.585 53.9563 139.944 53.57C139.341 53.2066 138.409 53.1318 137.899 52.6937L137.906 52.5842C138.434 52.2979 139.298 52.3929 139.854 52.5519C140.801 52.8224 141.572 53.4309 142.039 54.2973C142.07 54.3557 142.1 54.4147 142.128 54.4744C142.156 54.5341 142.183 54.5946 142.208 54.6557C142.233 54.7168 142.257 54.7784 142.279 54.8407C142.301 54.9029 142.322 54.9657 142.341 55.029C142.36 55.0923 142.377 55.1559 142.393 55.2201C142.409 55.2842 142.423 55.3486 142.435 55.4135C142.448 55.4783 142.459 55.5434 142.468 55.6087C142.478 55.6741 142.485 55.7397 142.492 55.8053C142.498 55.8711 142.502 55.937 142.505 56.003C142.508 56.069 142.509 56.135 142.509 56.201C142.508 56.267 142.506 56.333 142.502 56.399C142.499 56.4649 142.493 56.5307 142.486 56.5964C142.479 56.6621 142.471 56.7275 142.46 56.7927C142.45 56.858 142.438 56.9229 142.425 56.9874C142.411 57.0521 142.396 57.1164 142.38 57.1804C142.363 57.2442 142.345 57.3077 142.325 57.3707C141.99 58.465 141.209 59.4615 140.306 60.1523C139.425 60.7914 138.538 61.1396 137.428 60.9744C136.982 60.9081 136.535 60.7541 136.123 60.5714C135.888 62.5373 135.256 64.2589 134.143 65.9031C137.475 66.3373 140.61 66.4732 143.415 64.3109C145.397 62.7835 146.664 60.3586 146.964 57.8943C146.983 57.7407 146.998 57.5867 147.009 57.4324C147.021 57.278 147.028 57.1235 147.032 56.9688C147.036 56.814 147.035 56.6594 147.031 56.5047C147.027 56.35 147.02 56.1955 147.008 56.0411C146.997 55.8868 146.981 55.7329 146.962 55.5794C146.943 55.4257 146.92 55.2727 146.894 55.1202C146.867 54.9678 146.836 54.8161 146.802 54.6652C146.768 54.5142 146.731 54.3642 146.689 54.215C146.648 54.0659 146.602 53.9179 146.554 53.771C146.505 53.624 146.453 53.4784 146.397 53.334C146.341 53.1897 146.281 53.0469 146.218 52.9055C146.156 52.764 146.089 52.6242 146.019 52.4859C145.95 52.3478 145.876 52.2115 145.8 52.0768C145.723 51.9422 145.644 51.8095 145.561 51.6788C145.477 51.5482 145.391 51.4196 145.302 51.2931C145.213 51.1666 145.12 51.0424 145.025 50.9204C143.798 49.3748 141.898 48.081 139.904 47.8363C139.631 47.8028 139.347 47.7791 139.072 47.7712ZM126.856 55.0394C125.783 55.1098 124.642 55.3399 123.887 56.1773C123.378 56.7414 123.152 57.5115 123.226 58.2617C123.394 59.9774 124.854 61.4859 126.143 62.4959C127.632 63.6617 129.381 64.4924 131.146 65.148C131.504 65.2579 131.858 65.3697 132.225 65.4447C133.307 64.4866 134.199 62.9689 134.296 61.5061C134.393 60.0559 133.674 58.6917 132.714 57.651C131.199 56.0078 129.234 55.1271 127.011 55.0449L126.856 55.0394Z" fill="#AA94BF"/>
<path d="M45.1525 7.83546C45.9797 7.75192 46.7975 7.81894 47.5894 8.07705C47.683 8.10796 47.7758 8.14121 47.8678 8.17681C47.9597 8.2123 48.0507 8.25015 48.1407 8.29033C48.2309 8.33042 48.3199 8.3727 48.4078 8.41718C48.4957 8.46175 48.5825 8.50847 48.6682 8.55732C48.7537 8.60618 48.838 8.65718 48.9211 8.71033C49.0041 8.76337 49.0858 8.8185 49.1661 8.87573C49.2464 8.93285 49.3252 8.99196 49.4026 9.05306C49.4798 9.11416 49.5556 9.17714 49.6298 9.24201C49.7039 9.30689 49.7764 9.37355 49.8472 9.44199C49.918 9.51053 49.9871 9.58077 50.0545 9.65268C50.1217 9.72459 50.1871 9.79818 50.2507 9.87346C50.3144 9.94863 50.3761 10.0253 50.4359 10.1036C50.4956 10.1819 50.5534 10.2617 50.6092 10.3429C50.665 10.424 50.7187 10.5064 50.7703 10.5903C50.8219 10.6741 50.8715 10.7592 50.9189 10.8455C50.9662 10.9319 51.0114 11.0193 51.0544 11.1079C51.8264 12.6775 51.7108 14.2299 51.1501 15.8404C53.1465 15.5595 55.364 15.7436 57.0949 16.8521C58.7145 17.8891 59.719 19.5921 60.1034 21.4497C60.5884 23.7929 60.1492 26.3788 58.8141 28.3807C57.7073 30.0402 56.0846 30.8137 54.1763 31.1975C54.5615 31.8286 55.936 33.8579 55.7578 34.5166C55.7269 34.6313 55.656 34.6378 55.5607 34.693C54.558 34.6621 53.5491 33.7407 52.8284 33.1181C50.8698 33.761 48.9365 34.4817 46.9763 35.1208C45.3014 35.6668 43.6006 36.137 41.9464 36.7448C41.0826 38.4272 40.6756 40.4102 39.966 42.1712C39.5011 43.325 37.7265 47.1656 36.4853 47.6259C35.7279 47.9066 34.638 47.2755 33.9641 46.9696C33.9629 49.043 33.0468 50.7488 32.7423 52.7518C33.2291 53.919 33.7812 55.0462 34.174 56.2519C34.8609 58.3601 35.205 60.5789 35.5538 62.7623C35.7957 64.2779 36.0585 65.7892 36.1568 67.3224L35.3153 67.6368C36.0034 70.3645 37.3128 79.6549 39.1833 81.1327C40.2181 81.9502 42.2549 81.3549 42.9761 82.0501C42.955 82.2178 42.9564 82.2134 42.8237 82.324C42.0125 83.0008 40.5589 83.3787 39.5105 83.3629C39.1925 83.3582 38.8806 83.2852 38.5648 83.2526C38.3729 83.4602 38.4975 83.7332 38.3348 83.9752C38.0822 83.9737 37.8623 83.8323 37.6889 83.6483C36.9904 82.9067 37.3157 81.6914 36.9445 80.8001C36.6578 80.1118 36.0707 79.544 35.6217 78.9564C34.1797 77.0699 33.9643 74.8639 34.0941 72.5637C32.7011 71.6212 31.8386 70.5177 30.9594 69.1033C30.3984 69.126 29.818 69.1385 29.2653 69.0298C28.3061 71.5147 26.4156 73.4586 25.2411 75.8483C24.595 77.1628 22.7679 80.5627 23.644 81.8771C24.0563 82.4955 24.9119 82.8782 25.5352 83.2563C25.8026 83.4185 26.1163 83.5627 26.2208 83.8675C26.1678 83.9365 26.1233 84.0022 26.052 84.0563C25.8291 84.2252 25.5127 84.2379 25.2462 84.2171C24.0616 84.1241 22.8553 83.5855 22.0672 82.6955C22.0477 82.7829 22.0273 82.8701 22.0061 82.9572C21.9291 83.2746 21.8836 83.4846 21.5864 83.6639C21.3945 83.6437 21.3586 83.6348 21.2378 83.4637C20.6021 82.5638 21.547 81.3615 21.7428 80.4736C21.8707 79.8937 21.8451 79.3002 21.8604 78.7104C21.8903 77.5589 22.0265 76.4346 22.4236 75.3463C22.979 73.8244 24.22 72.6164 24.6718 71.1293C24.9681 70.1542 24.9084 69.0051 25.0118 67.9907C24.6208 67.735 24.1257 67.4336 23.9526 66.9777C23.6539 66.1914 24.6918 63.559 24.8672 62.6061C25.1493 61.0728 25.1407 59.4299 25.6457 57.9488C26.0353 56.8062 26.8298 55.8573 27.2979 54.7511L27.3412 54.647C27.4816 54.2382 27.5766 53.8422 27.6573 53.4181C27.2274 53.3809 26.7926 53.3658 26.4174 53.1269C26.1571 52.9612 25.9829 52.7227 25.928 52.4175C25.8032 51.7231 26.2673 51.053 26.6481 50.5172C26.4046 50.1072 26.1586 49.6986 25.9104 49.2913C25.5922 50.7188 25.514 52.2557 24.9101 53.6029C24.6366 54.213 24.2272 54.6816 23.8119 55.1945C23.0351 56.1532 22.7412 57.1157 22.4801 58.3044C21.6212 58.955 20.5308 59.7334 19.4126 59.6722L18.6007 60.2711C18.3054 60.2881 17.8569 60.3481 17.6068 60.1756C17.6436 59.962 18.5516 59.6669 18.7894 59.4987L18.8057 59.3756C18.7917 59.3672 18.7791 59.3558 18.764 59.3502C18.0772 59.0954 16.9851 59.6421 16.3484 59.8849C16.8062 60.2944 17.2303 60.7474 17.663 61.1833C17.8305 60.9307 17.9868 60.6553 18.2664 60.5179C18.3607 60.5257 18.4544 60.5311 18.5485 60.5375C18.8734 60.5598 18.9909 60.4215 19.2765 60.3326C19.4747 60.271 19.6676 60.291 19.849 60.3904C20.5426 60.7711 20.9616 62.167 21.1672 62.8858C21.377 63.6186 21.5683 64.4801 21.5492 65.2457C21.5245 66.2237 20.0866 71.643 19.6195 72.4734C18.9421 72.8527 15.2208 72.2717 14.3242 72.1553C13.1346 71.1733 8.98097 66.3311 8.28613 64.9068C9.08223 63.4676 11.9821 59.3389 13.1851 58.3549C13.9446 58.7954 14.6791 59.3017 15.418 59.7766C16.5548 58.3884 17.4613 58.496 19.0424 58.232C19.5784 58.1427 19.826 58.0308 20.1363 57.5854C20.3189 57.3235 20.4264 57.2531 20.7326 57.1443C21.015 56.5469 21.2548 55.9303 21.545 55.3369C22.0447 54.3158 22.6387 53.3017 22.9708 52.2114C23.242 51.321 23.305 50.3553 23.4526 49.4365C23.8321 47.0761 24.6252 44.6821 26.1396 42.7992C26.535 42.3075 27.6174 41.8705 27.8215 41.326C27.9943 40.8647 27.5678 40.2817 27.3362 39.9092C27.0089 40.4494 26.7818 41.0989 26.4073 41.5985C26.0718 42.0455 25.5232 42.2151 24.9866 42.2836C24.0578 42.4025 22.7909 42.0989 22.0514 41.4915C21.7811 41.2694 21.6542 41.0321 21.6195 40.6884C21.9624 40.3965 22.7129 40.6196 23.1439 40.3798C23.1087 40.014 22.8098 39.6275 22.6893 39.2699C22.5924 38.982 22.5878 38.7275 22.7408 38.4595C23.5042 37.1224 24.9448 36.3569 26.2027 35.5772C26.9367 35.1223 27.6079 34.6145 28.4641 34.406C28.9489 34.2877 30.1759 34.1414 30.5839 34.4437C30.8323 34.6277 31.4629 36.2697 31.5777 36.6279C31.6797 36.9456 31.7148 37.3034 31.7621 37.6337C32.0363 37.9295 32.2819 38.2307 32.5238 38.5525C32.3875 38.7679 32.2166 39.0081 32.1482 39.2551C31.9785 39.8675 32.1947 40.91 31.6993 41.363C31.2318 41.7908 30.387 41.6457 29.8119 41.6197C30.9141 42.4233 34.3459 44.1189 35.6752 44.6206C36.7966 42.3249 38.1073 40.7661 39.5735 38.7261C39.2178 38.3349 38.6738 37.7373 38.6292 37.1842C38.5542 36.2541 40.2435 36.3927 40.6172 35.7114C40.7331 35.4998 40.695 35.214 40.6687 34.986C40.5529 33.9838 40.2728 32.9659 40.0692 31.976C39.7937 30.6375 39.5638 29.2877 39.3204 27.9428C38.5115 28.0885 37.7104 28.2006 36.8861 28.1542C34.9897 28.0476 33.3154 27.074 32.0789 25.6649C30.5501 23.9225 29.9776 21.741 30.1316 19.4571C30.2739 17.3464 31.2057 15.2729 32.823 13.8818C34.9955 12.0129 37.5143 11.9212 40.2449 12.1156C40.5135 11.4255 40.805 10.7208 41.2188 10.1036C42.1502 8.71446 43.575 8.15233 45.1525 7.83546ZM36.7868 12.8024C34.967 13.0585 33.3321 13.9533 32.2106 15.4204C32.0127 15.6795 31.8738 15.9272 31.7491 16.2298C32.8789 14.9212 34.1481 13.8323 35.9509 13.6991C37.2498 13.6032 38.6623 14.039 39.6345 14.9135C40.5664 15.7517 40.8379 16.7486 41.0972 17.9242C40.3941 16.7203 39.56 15.5467 38.1413 15.143C36.9177 14.7948 35.5277 15.1375 34.4508 15.7622C32.8584 16.6862 31.5429 18.3035 31.0822 20.0942C31.0234 20.3315 30.9796 20.5714 30.9508 20.8141C30.9219 21.0566 30.9082 21.3001 30.9097 21.5445C31.1817 23.4216 32.0625 25.1012 33.606 26.2514C33.6897 26.313 33.7748 26.3725 33.8614 26.4299C33.948 26.4872 34.0359 26.5424 34.1253 26.5955C34.2146 26.6486 34.3052 26.6994 34.3971 26.748C34.4889 26.7967 34.5819 26.843 34.676 26.8871C34.7701 26.931 34.8653 26.9727 34.9615 27.0121C35.0577 27.0515 35.1548 27.0884 35.2528 27.123C35.3508 27.1576 35.4496 27.1898 35.5493 27.2196C35.6489 27.2492 35.7491 27.2765 35.8501 27.3013C35.9511 27.326 36.0526 27.3483 36.1546 27.3681C36.2567 27.3879 36.3592 27.4052 36.462 27.42C36.5649 27.4348 36.6682 27.447 36.7717 27.4567C36.8753 27.4664 36.979 27.4735 37.0828 27.478C37.1867 27.4826 37.2906 27.4846 37.3945 27.4841C37.4985 27.4836 37.6024 27.4805 37.7062 27.4749C37.81 27.4692 37.9136 27.461 38.017 27.4503C38.1204 27.4396 38.2235 27.4263 38.3262 27.4105C40.3973 27.0935 42.3345 25.7027 43.5381 24.0249C44.6384 22.491 45.1686 20.6039 44.8439 18.7303C44.8238 18.6166 44.8008 18.5034 44.7749 18.3908C44.7491 18.2782 44.7206 18.1663 44.6892 18.0551C44.6578 17.944 44.6237 17.8336 44.5868 17.724C44.5499 17.6146 44.5103 17.5061 44.4681 17.3986C44.4258 17.291 44.3809 17.1845 44.3333 17.0793C44.2857 16.974 44.2355 16.87 44.1828 16.7672C44.13 16.6643 44.0747 16.5628 44.0169 16.4627C43.9591 16.3626 43.8989 16.264 43.8361 16.1669C43.7735 16.0699 43.7083 15.9744 43.6408 15.8805C43.5733 15.7867 43.5036 15.6946 43.4315 15.6042C43.3594 15.5138 43.2852 15.4253 43.2087 15.3386C43.1323 15.2518 43.0537 15.167 42.9731 15.0841C42.8923 15.0013 42.8096 14.9206 42.7248 14.8419C42.6402 14.7632 42.5536 14.6866 42.4651 14.6121C42.3766 14.5377 42.2862 14.4656 42.194 14.3956C42.102 14.3256 42.0082 14.258 41.9127 14.1927C40.485 13.2117 38.5302 12.5778 36.7868 12.8024ZM52.8464 16.5392C50.8688 16.9755 49.2566 17.8962 48.1476 19.6355C46.9778 21.4702 46.8395 23.6378 47.3076 25.7221C47.6746 27.3574 48.427 28.8418 49.8907 29.7481C49.9673 29.7945 50.0449 29.8392 50.1235 29.8823C50.2021 29.9252 50.2816 29.9664 50.362 30.0059C50.4425 30.0453 50.5238 30.0829 50.606 30.1187C50.688 30.1545 50.7709 30.1884 50.8547 30.2204C50.9383 30.2525 51.0226 30.2827 51.1076 30.311C51.1927 30.3392 51.2783 30.3656 51.3644 30.3901C51.4507 30.4146 51.5374 30.4371 51.6246 30.4577C51.7118 30.4783 51.7995 30.4969 51.8876 30.5136C51.9756 30.5302 52.0639 30.5449 52.1527 30.5576C52.2414 30.5703 52.3304 30.581 52.4196 30.5898C52.5087 30.5984 52.5981 30.6051 52.6876 30.6098C52.7771 30.6145 52.8667 30.6172 52.9562 30.6179C53.0459 30.6186 53.1355 30.6173 53.225 30.6141C53.3146 30.6108 53.4041 30.6055 53.4935 30.5982C53.5827 30.5908 53.6718 30.5815 53.7607 30.5702C53.8496 30.5589 53.9382 30.5457 54.0266 30.5304C55.8118 30.2311 57.2429 29.5339 58.3102 28.0306C59.5672 26.2598 59.8921 23.9078 59.5104 21.8029C59.1965 20.072 58.367 18.4511 56.8831 17.4437C55.6536 16.6091 54.2975 16.431 52.8464 16.5392ZM45.5303 8.45114C44.0574 8.64897 42.7515 9.16016 41.8232 10.3716C41.4294 10.8856 41.1812 11.4514 40.9402 12.0473C42.6496 12.3702 43.5989 13.2057 44.561 14.6005C45.57 16.0629 46.0708 17.6474 46.3978 19.3777C47.4571 17.754 48.6594 16.5552 50.5269 15.9321C51.0745 14.408 51.2654 13.044 50.5607 11.5274C49.9749 10.2667 48.8961 9.19107 47.5704 8.72869C47.4068 8.6732 47.2409 8.62572 47.0727 8.58625C46.9046 8.54667 46.7349 8.51525 46.5637 8.49199C46.3925 8.46863 46.2206 8.45359 46.0481 8.44686C45.8754 8.44002 45.7028 8.44145 45.5303 8.45114ZM11.6908 61.1066C10.7827 62.3486 9.80339 63.5812 8.98832 64.8851C9.79181 66.2027 10.902 67.3916 11.8992 68.5658C12.792 69.617 13.6643 70.7249 14.6593 71.6814L15.2146 70.8855C16.3889 69.0865 17.5379 67.2715 18.6615 65.4406C17.3127 64.5579 15.945 63.7055 14.5583 62.8833C13.636 62.3376 12.4587 61.8388 11.6908 61.1066ZM20.8451 64.8909C20.3597 65.0506 19.8717 65.2047 19.3936 65.3851C18.7028 66.6585 17.9842 67.9084 17.1742 69.1107C16.6265 69.9239 15.9504 70.7048 15.4893 71.5673C15.6414 71.6911 15.7423 71.7053 15.9269 71.7498C17.0261 71.7915 18.1235 71.862 19.219 71.9614C19.5063 70.9509 21.1527 65.4957 20.8451 64.8909ZM13.2175 59.1918C12.818 59.645 12.4398 60.0996 12.0847 60.5884C13.1719 61.3192 14.3635 61.9039 15.4844 62.5848C16.6701 63.3053 17.8154 64.1364 19.0221 64.8144C19.4188 64.7295 19.9928 64.649 20.2912 64.367L20.2426 64.2663C19.4301 63.7314 18.6643 63.1047 17.8354 62.6009C17.6804 62.6739 17.504 62.738 17.3671 62.8403L17.2019 62.8353L17.1027 62.7045L17.1734 62.3894C16.9767 62.1022 15.2971 61.0881 14.7857 60.6291L13.7379 61.3126C14.0018 60.879 14.2991 60.5705 14.7047 60.268C14.2403 59.8405 13.7684 59.5006 13.2175 59.1918ZM31.7643 53.7894C32.2833 54.4809 32.6169 55.1704 32.8866 55.9924C33.5825 58.1125 34.1982 61.4463 34.6343 63.716C34.8019 64.5879 34.8738 65.5745 35.1366 66.4154C35.1933 66.597 35.2417 66.6724 35.4147 66.7595C35.503 65.6121 35.172 64.3272 34.9885 63.1956C34.6243 60.9489 33.9893 55.9108 32.5148 54.2259C32.2922 53.9717 32.0861 53.8725 31.7643 53.7894ZM28.901 41.8324C29.2396 44.3553 32.0393 45.2664 32.5057 47.6219C32.8559 49.3903 30.9315 52.0213 31.5846 52.8867C31.7257 52.924 31.8032 52.9317 31.9463 52.9011C32.0042 52.353 32.0495 51.7958 32.2054 51.2649C32.51 50.2283 33.1497 49.2157 33.0902 48.1074C33.0362 47.1026 32.3638 46.5633 32.3092 45.8542C32.2577 45.1844 30.4095 44.2329 29.9387 43.7329C29.4979 43.2645 29.4876 42.5665 29.1315 42.0602C29.0645 41.9648 29.0453 41.9329 28.9588 41.867C28.941 41.8534 28.9203 41.8439 28.901 41.8324ZM40.2098 38.9921C39.8 39.9261 39.4337 40.9713 38.9394 41.8575C38.3017 43.0009 36.3877 44.827 36.5897 46.1567L36.6411 46.2163C37.8372 45.138 40.1854 41.0065 40.3189 39.4731C40.3372 39.2632 40.3335 39.1625 40.2098 38.9921ZM30.8525 36.2382C30.6749 36.9596 30.4841 37.5794 30.1247 38.2332C30.5498 38.6913 30.9492 40.0482 31.4714 40.2224C31.6127 40.1094 31.5657 40.1766 31.6261 40.0308C31.5953 39.4166 31.2603 39.1285 31.7439 38.6144C31.7632 38.5938 31.7838 38.5745 31.8038 38.5546C31.7764 38.3817 31.7595 38.3343 31.5923 38.2362C31.304 38.0672 30.9218 38.1502 30.6621 37.9169C30.7381 37.601 30.9978 37.4224 31.2508 37.2328C31.1528 36.9385 31.0635 36.4576 30.8525 36.2382ZM41.0923 35.8714C40.4752 36.3736 39.8555 36.8723 39.233 37.3676C39.3822 37.589 39.5232 37.8297 39.7207 38.0109C39.7144 37.7792 39.6771 37.6926 39.8521 37.5179C40.2952 37.076 41.2586 36.9479 41.4598 36.2975C41.4141 36.0908 41.3979 36.0637 41.2123 35.9401C41.174 35.9146 41.1323 35.8942 41.0923 35.8714ZM19.9686 61.6295C19.9262 62.0974 19.8756 62.5646 19.817 63.0308C20.1119 63.3081 20.4011 63.5646 20.7298 63.8026C20.6651 63.2173 20.4669 62.1275 20.044 61.6897C20.0216 61.6666 19.9937 61.6497 19.9686 61.6295Z" fill="#40304B"/>
<path d="M52.3945 31.2954L53.5061 31.2858C54.0328 32.1259 54.6283 32.9696 54.9666 33.9064C53.9241 33.5112 53.1286 32.1127 52.3945 31.2954Z" fill="#AA94BF"/>
<path d="M41.4522 27.3157C41.6889 27.6137 41.2415 34.1756 41.1935 34.9107C41.0971 34.5504 41.0361 34.2014 40.9855 33.833L39.8135 27.9151C40.3782 27.7481 40.9106 27.5466 41.4522 27.3157Z" fill="#AA94BF"/>
<path d="M43.9798 25.1606C44.1097 25.3582 44.0218 25.5653 43.9711 25.788C43.7603 26.7126 43.4142 27.6231 43.1585 28.5383C42.6493 30.4033 42.1983 32.2823 41.8057 34.1751C41.334 33.3919 41.9446 28.3055 41.9483 27.0228C42.6475 26.4226 43.3164 25.7997 43.9798 25.1606Z" fill="#AA94BF"/>
<path d="M51.1033 31.3611C51.6939 31.448 52.1696 32.0409 52.5623 32.444C50.0184 33.4462 47.4519 34.3872 44.8628 35.2669L43.5684 35.6404C46.1063 34.255 48.532 32.6881 51.1033 31.3611Z" fill="#AA94BF"/>
<path d="M48.4318 29.3594C49.1735 30.0075 49.8236 30.5933 50.6831 31.0923L44.1921 34.8314C43.6446 35.1296 43.0789 35.3944 42.5176 35.6655C44.5017 33.5722 46.4141 31.424 48.4318 29.3594Z" fill="#AA94BF"/>
<path d="M46.8035 26.0126C47.061 26.3114 47.8886 28.3725 48.2576 28.9791C46.4558 30.8249 44.6863 32.7008 42.9491 34.6071L42.0029 35.5101C43.7802 32.4347 44.9537 29.0491 46.8035 26.0126Z" fill="#AA94BF"/>
<path d="M51.5916 16.2493L51.6003 16.2534C51.6012 16.3833 51.1561 16.5124 51.0249 16.5695C49.8333 17.0876 48.659 17.9589 47.8788 19.0041C46.4727 20.8876 46.3957 22.9773 46.7187 25.2188C45.0859 28.243 43.6496 31.4013 42.1289 34.4855L42.0578 34.5561C41.9641 33.7274 44.9897 23.5761 45.4255 22.3744C45.7589 21.4549 46.1514 20.552 46.6761 19.7237C47.8219 17.9146 49.4944 16.7106 51.5916 16.2493Z" fill="#AA94BF"/>
<path d="M44.6578 9.26996C44.9391 9.26644 45.2079 9.29291 45.4771 9.38134C45.8224 9.49472 46.1148 9.73034 46.2609 10.0662C46.4479 10.4961 46.3831 11.0091 46.1985 11.4284C45.9059 12.0926 45.4414 12.4123 44.791 12.6828C44.477 12.6783 44.1806 12.6555 43.8849 12.5409C43.5554 12.4132 43.2785 12.1533 43.1511 11.8219C42.9855 11.3906 43.0514 10.8978 43.2419 10.486C43.5365 9.84938 44.0066 9.49258 44.6578 9.26996ZM44.6929 9.94868C44.2923 10.1063 43.9979 10.2865 43.8079 10.6892C43.6836 10.9528 43.635 11.2734 43.7567 11.5476C43.8456 11.7481 44.0474 11.9328 44.2591 11.9982C44.4252 12.0494 44.6225 12.037 44.795 12.0358C45.2218 11.8106 45.5998 11.5081 45.735 11.0241C45.7911 10.8237 45.7931 10.6185 45.6974 10.4285C45.5685 10.1725 45.3105 10.0414 45.0403 9.98678C44.9261 9.96367 44.8086 9.9574 44.6929 9.94868Z" fill="#40304B"/>
<path d="M47.2726 12.255C47.6295 12.2607 47.9718 12.2989 48.2901 12.474C48.6491 12.6713 48.895 12.9946 49.0006 13.3881C49.1365 13.8944 49.0446 14.4653 48.7797 14.9151C48.4212 15.5238 47.9105 15.8125 47.2419 15.9831C46.9231 16.004 46.6306 15.9938 46.3304 15.8715C45.9534 15.7179 45.6765 15.4373 45.5406 15.053C45.3511 14.5165 45.4494 13.8898 45.7182 13.3984C46.0739 12.7478 46.5894 12.4675 47.2726 12.255ZM46.9317 13.0009C46.5475 13.2503 46.2393 13.4728 46.1279 13.9396C46.0543 14.2479 46.0497 14.5819 46.2214 14.8591C46.3721 15.1024 46.6415 15.251 46.9222 15.2898C47.0993 15.3141 47.2943 15.307 47.4685 15.2685C47.8819 15.0218 48.2092 14.7745 48.3421 14.2895C48.4182 14.0121 48.393 13.7153 48.2337 13.4711C48.0873 13.2469 47.8286 13.0806 47.5671 13.0267C47.3649 12.9853 47.1367 12.9862 46.9317 13.0009Z" fill="#40304B"/>
<path d="M50.8229 20.5229C51.1988 20.4721 51.562 20.4535 51.93 20.5652C52.4379 20.7192 52.8803 21.0612 53.1148 21.5415C53.1406 21.5941 53.1637 21.6479 53.1841 21.7027C53.2047 21.7577 53.2224 21.8135 53.2373 21.8701C53.2523 21.9268 53.2643 21.9841 53.2735 22.0419C53.2827 22.0998 53.2891 22.158 53.2925 22.2165C53.296 22.275 53.2966 22.3335 53.2942 22.392C53.2919 22.4506 53.2867 22.5089 53.2786 22.5669C53.2704 22.6248 53.2594 22.6823 53.2456 22.7393C53.2318 22.7962 53.2152 22.8524 53.1958 22.9076C52.9704 23.5428 52.5289 23.8608 51.9442 24.1456C51.6195 24.188 51.2672 24.2193 50.9441 24.1525C50.4478 24.05 49.9906 23.719 49.7375 23.2822C49.7059 23.2274 49.6772 23.1712 49.6515 23.1136C49.6256 23.0559 49.6028 22.9971 49.5831 22.937C49.5634 22.877 49.5468 22.8162 49.5334 22.7545C49.5199 22.6928 49.5097 22.6305 49.5026 22.5678C49.4956 22.505 49.4918 22.442 49.4913 22.3789C49.4908 22.3157 49.4935 22.2527 49.4994 22.1897C49.5053 22.1269 49.5145 22.0645 49.5268 22.0026C49.5392 21.9407 49.5547 21.8796 49.5734 21.8192C49.785 21.1486 50.2335 20.8338 50.8229 20.5229ZM50.9719 21.1997C50.6008 21.3981 50.2652 21.6184 50.1455 22.0467C50.1366 22.0782 50.1293 22.1101 50.1236 22.1423C50.1178 22.1746 50.1138 22.2071 50.1114 22.2398C50.1091 22.2724 50.1084 22.3051 50.1095 22.3379C50.1105 22.3706 50.1131 22.4032 50.1174 22.4358C50.1218 22.4682 50.1278 22.5003 50.1354 22.5322C50.143 22.5641 50.1523 22.5955 50.1631 22.6264C50.174 22.6573 50.1863 22.6876 50.2002 22.7173C50.2142 22.747 50.2297 22.7758 50.2465 22.8039C50.4135 23.0876 50.7339 23.3233 51.0547 23.3992C51.2862 23.454 51.5306 23.4381 51.7653 23.4196C52.127 23.2276 52.4496 23.0037 52.5854 22.598C52.5963 22.5652 52.6053 22.532 52.6124 22.4982C52.6197 22.4644 52.625 22.4304 52.6285 22.396C52.6321 22.3617 52.6338 22.3273 52.6336 22.2927C52.6334 22.2582 52.6313 22.2239 52.6273 22.1896C52.6234 22.1553 52.6176 22.1214 52.61 22.0877C52.6024 22.054 52.593 22.0209 52.5817 21.9882C52.5706 21.9556 52.5577 21.9236 52.543 21.8923C52.5283 21.8611 52.512 21.8307 52.494 21.8013C52.3187 21.508 51.9973 21.2814 51.6641 21.2065C51.4383 21.1559 51.2002 21.1812 50.9719 21.1997Z" fill="#40304B"/>
<path d="M54.9464 17.676C55.3328 17.629 55.6978 17.6639 56.0626 17.8068C56.1226 17.8297 56.1812 17.8555 56.2384 17.8844C56.2958 17.9133 56.3514 17.945 56.4054 17.9796C56.4595 18.0141 56.5116 18.0514 56.5618 18.0913C56.612 18.1312 56.66 18.1737 56.7057 18.2186C56.7515 18.2634 56.7949 18.3105 56.8359 18.3598C56.8768 18.4091 56.9151 18.4605 56.9507 18.5137C56.9864 18.5669 57.0192 18.6219 57.0492 18.6785C57.0791 18.7352 57.1061 18.7932 57.1301 18.8526C57.1537 18.9091 57.1743 18.9667 57.1919 19.0253C57.2094 19.084 57.2238 19.1434 57.2352 19.2036C57.2465 19.2638 57.2547 19.3244 57.2597 19.3854C57.2647 19.4465 57.2665 19.5076 57.2651 19.5688C57.2636 19.63 57.259 19.691 57.2513 19.7516C57.2435 19.8123 57.2326 19.8725 57.2184 19.9322C57.2043 19.9918 57.1872 20.0504 57.1669 20.1081C57.1467 20.166 57.1235 20.2226 57.0973 20.278C56.8025 20.8888 56.3323 21.1479 55.7179 21.3753C55.3544 21.4191 55.018 21.3866 54.6749 21.2517C54.614 21.2284 54.5546 21.2022 54.4966 21.1729C54.4384 21.1436 54.3819 21.1114 54.3271 21.0763C54.2723 21.0413 54.2195 21.0034 54.1686 20.9628C54.1177 20.9223 54.069 20.8793 54.0226 20.8338C53.9761 20.7883 53.9321 20.7406 53.8905 20.6906C53.849 20.6405 53.8101 20.5885 53.774 20.5346C53.7378 20.4805 53.7044 20.4248 53.674 20.3673C53.6435 20.31 53.6161 20.2512 53.5917 20.1909C53.5689 20.1355 53.5489 20.0791 53.5317 20.0217C53.5145 19.9643 53.5003 19.9061 53.4889 19.8473C53.4776 19.7885 53.4692 19.7293 53.4636 19.6696C53.4581 19.61 53.4556 19.5501 53.4561 19.4902C53.4565 19.4303 53.46 19.3706 53.4664 19.311C53.4728 19.2514 53.4822 19.1923 53.4944 19.1337C53.5067 19.075 53.5219 19.0171 53.54 18.96C53.5581 18.9029 53.5789 18.8468 53.6025 18.7917C53.8712 18.1723 54.3377 17.9017 54.9464 17.676ZM54.8164 18.3602C54.4734 18.6184 54.202 18.8362 54.1522 19.2864C54.1175 19.6002 54.1918 19.9146 54.3975 20.1588C54.5964 20.3947 54.9246 20.5629 55.2336 20.5838C55.4028 20.5953 55.5811 20.5753 55.7478 20.5459C56.0934 20.3334 56.4068 20.1029 56.5092 19.6883C56.5679 19.451 56.5277 19.2096 56.3985 19.0032C56.2116 18.7045 55.8754 18.4813 55.5335 18.402C55.3009 18.348 55.0536 18.3509 54.8164 18.3602Z" fill="#40304B"/>
<path d="M56.8216 22.3585C57.0965 22.3879 57.3623 22.4376 57.617 22.5502C57.6837 22.5796 57.7488 22.6123 57.8122 22.6483C57.8755 22.6844 57.9369 22.7237 57.9961 22.7661C58.0554 22.8085 58.1124 22.8538 58.1669 22.9021C58.2215 22.9504 58.2735 23.0014 58.3229 23.0551C58.3721 23.1088 58.4185 23.1648 58.4619 23.2233C58.5054 23.2817 58.5457 23.3423 58.5829 23.4049C58.6201 23.4675 58.6539 23.5319 58.6844 23.5981C58.7149 23.6642 58.7418 23.7318 58.7654 23.8007C58.9329 24.3024 58.9135 24.8708 58.6473 25.3356C58.3146 25.9166 57.8054 26.1059 57.1949 26.2717C56.7268 26.2567 56.3018 26.2023 55.903 25.9345C55.8466 25.8969 55.7923 25.8564 55.74 25.8132C55.6877 25.77 55.6377 25.7243 55.5901 25.6761C55.5425 25.6278 55.4974 25.5773 55.455 25.5245C55.4125 25.4717 55.3728 25.4169 55.3359 25.36C55.299 25.3032 55.265 25.2446 55.2341 25.1843C55.2032 25.124 55.1754 25.0624 55.1507 24.9993C55.126 24.9362 55.1047 24.872 55.0866 24.8067C55.0685 24.7415 55.0537 24.6755 55.0423 24.6087C54.9533 24.0997 55.0575 23.5521 55.3688 23.1341C55.7264 22.6541 56.2411 22.4292 56.8216 22.3585ZM56.7299 23.0472C56.336 23.1378 55.9973 23.2776 55.7735 23.6341C55.61 23.8945 55.5783 24.2004 55.6634 24.4934C55.7724 24.8688 56.0623 25.2036 56.4146 25.3733C56.6252 25.4746 56.8663 25.4939 57.0957 25.5203C57.5271 25.3353 57.902 25.1559 58.0946 24.7007C58.2146 24.417 58.23 24.1159 58.103 23.8325C57.9557 23.5036 57.6306 23.2521 57.2918 23.1417C57.1101 23.0828 56.9191 23.0642 56.7299 23.0472Z" fill="#40304B"/>
<path d="M56.5434 23.6617C56.6635 23.7125 56.5986 23.674 56.7224 23.8005C56.7493 24.1417 56.7368 24.5507 56.5134 24.8186C56.3464 24.6165 56.2304 24.4907 56.2021 24.2182C56.2662 23.9679 56.3693 23.849 56.5434 23.6617Z" fill="#0F1013"/>
<path d="M51.9504 25.1925C52.3193 25.2 52.6733 25.2415 53.0143 25.3902C53.4999 25.6021 53.8824 25.9907 54.0578 26.4927C54.0785 26.552 54.0963 26.6121 54.111 26.6731C54.1256 26.7342 54.1371 26.7959 54.1455 26.8581C54.1539 26.9202 54.1591 26.9827 54.1611 27.0455C54.1632 27.1083 54.162 27.1709 54.1576 27.2336C54.1532 27.2962 54.1456 27.3584 54.1349 27.4202C54.1242 27.482 54.1103 27.5432 54.0934 27.6037C54.0764 27.6642 54.0564 27.7236 54.0334 27.7819C54.0104 27.8404 53.9845 27.8975 53.9557 27.9533C53.6334 28.5855 53.0916 28.8675 52.4424 29.0763C51.9826 29.0843 51.544 29.028 51.1389 28.7953C51.0821 28.7633 51.0271 28.7286 50.9739 28.6909C50.9207 28.6533 50.8695 28.613 50.8204 28.5702C50.7714 28.5274 50.7246 28.4821 50.6801 28.4345C50.6357 28.3869 50.5938 28.3371 50.5546 28.2852C50.5152 28.2332 50.4787 28.1795 50.445 28.1239C50.4112 28.0682 50.3804 28.0109 50.3525 27.9521C50.3246 27.8932 50.2998 27.8331 50.2781 27.7718C50.2565 27.7104 50.238 27.6481 50.2226 27.5849C50.2074 27.5208 50.1956 27.4561 50.1871 27.3909C50.1785 27.3256 50.1733 27.26 50.1716 27.1942C50.1698 27.1284 50.1714 27.0626 50.1763 26.997C50.1813 26.9313 50.1897 26.8661 50.2015 26.8013C50.2132 26.7366 50.2283 26.6726 50.2466 26.6093C50.2649 26.546 50.2864 26.4838 50.3111 26.4228C50.3357 26.3618 50.3635 26.3022 50.3944 26.2439C50.4252 26.1858 50.459 26.1293 50.4957 26.0746C50.8471 25.5519 51.3512 25.3151 51.9504 25.1925ZM51.6849 25.8565C51.3012 26.113 50.9699 26.3549 50.865 26.8289C50.7899 27.1687 50.8275 27.5139 51.0282 27.8044C51.2162 28.0768 51.549 28.2647 51.875 28.3121C52.0924 28.3438 52.3267 28.2989 52.5424 28.2689C52.9209 28.0197 53.261 27.7718 53.3725 27.3084C53.4451 27.0056 53.4086 26.6925 53.2358 26.4294C53.0279 26.1125 52.6523 25.907 52.2819 25.853C52.0835 25.8241 51.8836 25.8402 51.6849 25.8565Z" fill="#40304B"/>
<path d="M35.1208 17.7608C35.4791 17.739 35.8215 17.7499 36.147 17.9165C36.8745 18.2889 37.0744 19.1213 37.302 19.8358C37.8027 19.2864 38.3539 18.6646 39.1363 18.5596C39.5257 18.5073 39.9389 18.5844 40.2434 18.844C40.4663 19.0341 40.5767 19.3153 40.595 19.6026C40.6794 20.9288 39.1829 22.2483 38.3502 23.1345C37.4647 24.1075 36.5567 25.0591 35.6262 25.9893C35.2372 24.4654 34.016 19.9914 34.2963 18.6064C34.3821 18.1818 34.7843 17.9718 35.1208 17.7608Z" fill="#40304B"/>
</svg>
