<svg width="150" height="150" viewBox="0 0 150 150" fill="none" xmlns="http://www.w3.org/2000/svg">
<path d="M18.75 0H131.25V150H18.75V0ZM121.875 140.625V9.375H28.125V140.625H121.875ZM112.5 37.5V46.875H75V37.5H112.5ZM112.5 75V84.375H75V75H112.5ZM112.5 112.5V121.875H75V112.5H112.5ZM68.9209 31.4209L51.5625 48.7793L38.8916 36.1084L45.4834 29.5166L51.5625 35.5957L62.3291 24.8291L68.9209 31.4209ZM68.9209 68.9209L51.5625 86.2793L38.8916 73.6084L45.4834 67.0166L51.5625 73.0957L62.3291 62.3291L68.9209 68.9209ZM68.9209 106.421L51.5625 123.779L38.8916 111.108L45.4834 104.517L51.5625 110.596L62.3291 99.8291L68.9209 106.421Z" fill="black"/>
</svg>
