<svg width="16" height="16" viewBox="0 0 16 16" fill="none" xmlns="http://www.w3.org/2000/svg">
<g id="ic:round-star">
<path id="Vector" d="M8.25832 11.0854L8.00008 10.9292L7.74155 11.085L4.97489 12.7516L4.97399 12.7522C4.84777 12.8286 4.6931 12.7179 4.72651 12.5734C4.72651 12.5734 4.72652 12.5734 4.72652 12.5734C4.72654 12.5733 4.72655 12.5732 4.72656 12.5732L5.45984 9.42674L5.52832 9.13294L5.30032 8.93538L2.85365 6.81538L2.85348 6.81523C2.74008 6.71706 2.8043 6.53628 2.94587 6.52502L2.94587 6.52502L2.94852 6.5248L6.16852 6.25147L6.46868 6.22599L6.58644 5.94872L7.84644 2.98205L7.84644 2.98205L7.84726 2.98011C7.87424 2.91584 7.92826 2.88159 7.99956 2.88159C8.07086 2.88159 8.12488 2.91584 8.15186 2.98011L8.15252 2.98168L9.41252 5.95501L9.53017 6.23263L9.8306 6.25813L13.0506 6.53147L13.0506 6.53147L13.0532 6.53168C13.1948 6.54295 13.259 6.72373 13.1456 6.82189L13.1455 6.82205L10.6988 8.94205L10.4708 9.1396L10.5393 9.43341L11.2726 12.5799C11.3062 12.7244 11.1514 12.8353 11.0251 12.7588L11.025 12.7588L8.25832 11.0854ZM11.0262 9.31992L13.4729 7.19993L11.0262 9.31992Z" stroke="black"/>
</g>
</svg>
