<svg width="151" height="150" viewBox="0 0 151 150" fill="none" xmlns="http://www.w3.org/2000/svg">
<path d="M87.9999 62.5L69.2499 81.25M127.3 18.9438C127.893 18.7391 128.532 18.7054 129.143 18.8466C129.754 18.9877 130.313 19.298 130.757 19.742C131.2 20.1859 131.51 20.7456 131.65 21.3571C131.79 21.9686 131.755 22.6073 131.55 23.2L94.5249 129.013C94.3033 129.645 93.8968 130.196 93.3581 130.595C92.8193 130.994 92.1732 131.221 91.5036 131.248C90.8339 131.275 90.1716 131.1 89.6026 130.746C89.0335 130.392 88.584 129.875 88.3124 129.263L68.1936 84C67.8551 83.2473 67.2526 82.6448 66.4999 82.3063L21.2374 62.1813C20.6267 61.9086 20.1118 61.4591 19.7593 60.8909C19.4067 60.3226 19.2326 59.6617 19.2595 58.9934C19.2865 58.3252 19.5131 57.6804 19.9103 57.1424C20.3074 56.6043 20.8568 56.1977 21.4874 55.975L127.3 18.9438Z" stroke="black" stroke-width="10" stroke-linecap="round" stroke-linejoin="round"/>
</svg>
