<svg width="24" height="25" viewBox="0 0 24 25" fill="none" xmlns="http://www.w3.org/2000/svg">
<path fill-rule="evenodd" clip-rule="evenodd" d="M5.73303 2.54281C6.95003 1.33281 8.95403 1.54781 9.97303 2.90981L11.235 4.59381C12.065 5.70181 11.991 7.24981 11.006 8.22881L10.768 8.46681C10.741 8.56672 10.7383 8.67163 10.76 8.77281C10.823 9.18081 11.164 10.0448 12.592 11.4648C14.02 12.8848 14.89 13.2248 15.304 13.2888C15.4083 13.3098 15.5161 13.3067 15.619 13.2798L16.027 12.8738C16.903 12.0038 18.247 11.8408 19.331 12.4298L21.241 13.4698C22.878 14.3578 23.291 16.5818 21.951 17.9148L20.53 19.3268C20.082 19.7718 19.48 20.1428 18.746 20.2118C16.936 20.3808 12.719 20.1648 8.28603 15.7578C4.14903 11.6438 3.35503 8.05581 3.25403 6.28781C3.20403 5.39381 3.62603 4.63781 4.16403 4.10381L5.73303 2.54281ZM8.77303 3.80881C8.26603 3.13181 7.32203 3.07781 6.79003 3.60681L5.22003 5.16681C4.89003 5.49481 4.73203 5.85681 4.75203 6.20281C4.83203 7.60781 5.47203 10.8448 9.34403 14.6948C13.406 18.7328 17.157 18.8538 18.607 18.7178C18.903 18.6908 19.197 18.5368 19.472 18.2638L20.892 16.8508C21.47 16.2768 21.343 15.2308 20.525 14.7868L18.615 13.7478C18.087 13.4618 17.469 13.5558 17.085 13.9378L16.63 14.3908L16.1 13.8588C16.63 14.3908 16.629 14.3918 16.628 14.3918L16.627 14.3938L16.624 14.3968L16.617 14.4028L16.602 14.4168C16.5598 14.456 16.5143 14.4915 16.466 14.5228C16.386 14.5758 16.28 14.6348 16.147 14.6838C15.877 14.7848 15.519 14.8388 15.077 14.7708C14.21 14.6378 13.061 14.0468 11.534 12.5288C10.008 11.0108 9.41203 9.86881 9.27803 9.00281C9.20903 8.56081 9.26403 8.20281 9.36603 7.93281C9.42216 7.78088 9.50254 7.63904 9.60403 7.51281L9.63603 7.47781L9.65003 7.46281L9.65603 7.45681L9.65903 7.45381L9.66103 7.45181L9.94903 7.16581C10.377 6.73881 10.437 6.03181 10.034 5.49281L8.77303 3.80881Z" fill="black"/>
</svg>
